%TF.GenerationSoftware,KiCad,Pcbnew,(5.1.5)-3*%
%TF.CreationDate,2020-05-16T12:13:26+02:00*%
%TF.ProjectId,30_PCB,33305f50-4342-42e6-9b69-6361645f7063,V1.1*%
%TF.SameCoordinates,Original*%
%TF.FileFunction,Legend,Top*%
%TF.FilePolarity,Positive*%
%FSLAX46Y46*%
G04 Gerber Fmt 4.6, Leading zero omitted, Abs format (unit mm)*
G04 Created by KiCad (PCBNEW (5.1.5)-3) date 2020-05-16 12:13:26*
%MOMM*%
%LPD*%
G04 APERTURE LIST*
%ADD10C,0.150000*%
%ADD11C,0.120000*%
G04 APERTURE END LIST*
D10*
X104800095Y-80431142D02*
X104752476Y-80478761D01*
X104609619Y-80526380D01*
X104514380Y-80526380D01*
X104371523Y-80478761D01*
X104276285Y-80383523D01*
X104228666Y-80288285D01*
X104181047Y-80097809D01*
X104181047Y-79954952D01*
X104228666Y-79764476D01*
X104276285Y-79669238D01*
X104371523Y-79574000D01*
X104514380Y-79526380D01*
X104609619Y-79526380D01*
X104752476Y-79574000D01*
X104800095Y-79621619D01*
X105228666Y-80526380D02*
X105228666Y-79526380D01*
X105657238Y-80526380D02*
X105657238Y-80002571D01*
X105609619Y-79907333D01*
X105514380Y-79859714D01*
X105371523Y-79859714D01*
X105276285Y-79907333D01*
X105228666Y-79954952D01*
X106562000Y-80526380D02*
X106562000Y-80002571D01*
X106514380Y-79907333D01*
X106419142Y-79859714D01*
X106228666Y-79859714D01*
X106133428Y-79907333D01*
X106562000Y-80478761D02*
X106466761Y-80526380D01*
X106228666Y-80526380D01*
X106133428Y-80478761D01*
X106085809Y-80383523D01*
X106085809Y-80288285D01*
X106133428Y-80193047D01*
X106228666Y-80145428D01*
X106466761Y-80145428D01*
X106562000Y-80097809D01*
X107038190Y-80526380D02*
X107038190Y-79859714D01*
X107038190Y-79526380D02*
X106990571Y-79574000D01*
X107038190Y-79621619D01*
X107085809Y-79574000D01*
X107038190Y-79526380D01*
X107038190Y-79621619D01*
X107371523Y-79859714D02*
X107752476Y-79859714D01*
X107514380Y-79526380D02*
X107514380Y-80383523D01*
X107562000Y-80478761D01*
X107657238Y-80526380D01*
X107752476Y-80526380D01*
X108085809Y-80526380D02*
X108085809Y-79526380D01*
X108514380Y-80526380D02*
X108514380Y-80002571D01*
X108466761Y-79907333D01*
X108371523Y-79859714D01*
X108228666Y-79859714D01*
X108133428Y-79907333D01*
X108085809Y-79954952D01*
X108990571Y-80526380D02*
X108990571Y-79859714D01*
X108990571Y-80050190D02*
X109038190Y-79954952D01*
X109085809Y-79907333D01*
X109181047Y-79859714D01*
X109276285Y-79859714D01*
X110038190Y-80526380D02*
X110038190Y-80002571D01*
X109990571Y-79907333D01*
X109895333Y-79859714D01*
X109704857Y-79859714D01*
X109609619Y-79907333D01*
X110038190Y-80478761D02*
X109942952Y-80526380D01*
X109704857Y-80526380D01*
X109609619Y-80478761D01*
X109562000Y-80383523D01*
X109562000Y-80288285D01*
X109609619Y-80193047D01*
X109704857Y-80145428D01*
X109942952Y-80145428D01*
X110038190Y-80097809D01*
X111276285Y-80526380D02*
X111276285Y-79526380D01*
X111609619Y-80240666D01*
X111942952Y-79526380D01*
X111942952Y-80526380D01*
X112847714Y-80526380D02*
X112847714Y-80002571D01*
X112800095Y-79907333D01*
X112704857Y-79859714D01*
X112514380Y-79859714D01*
X112419142Y-79907333D01*
X112847714Y-80478761D02*
X112752476Y-80526380D01*
X112514380Y-80526380D01*
X112419142Y-80478761D01*
X112371523Y-80383523D01*
X112371523Y-80288285D01*
X112419142Y-80193047D01*
X112514380Y-80145428D01*
X112752476Y-80145428D01*
X112847714Y-80097809D01*
X113323904Y-80526380D02*
X113323904Y-79526380D01*
X113752476Y-80526380D02*
X113752476Y-80002571D01*
X113704857Y-79907333D01*
X113609619Y-79859714D01*
X113466761Y-79859714D01*
X113371523Y-79907333D01*
X113323904Y-79954952D01*
X114657238Y-80526380D02*
X114657238Y-80002571D01*
X114609619Y-79907333D01*
X114514380Y-79859714D01*
X114323904Y-79859714D01*
X114228666Y-79907333D01*
X114657238Y-80478761D02*
X114562000Y-80526380D01*
X114323904Y-80526380D01*
X114228666Y-80478761D01*
X114181047Y-80383523D01*
X114181047Y-80288285D01*
X114228666Y-80193047D01*
X114323904Y-80145428D01*
X114562000Y-80145428D01*
X114657238Y-80097809D01*
X115562000Y-80526380D02*
X115562000Y-79526380D01*
X115562000Y-80478761D02*
X115466761Y-80526380D01*
X115276285Y-80526380D01*
X115181047Y-80478761D01*
X115133428Y-80431142D01*
X115085809Y-80335904D01*
X115085809Y-80050190D01*
X115133428Y-79954952D01*
X115181047Y-79907333D01*
X115276285Y-79859714D01*
X115466761Y-79859714D01*
X115562000Y-79907333D01*
X116419142Y-80478761D02*
X116323904Y-80526380D01*
X116133428Y-80526380D01*
X116038190Y-80478761D01*
X115990571Y-80383523D01*
X115990571Y-80002571D01*
X116038190Y-79907333D01*
X116133428Y-79859714D01*
X116323904Y-79859714D01*
X116419142Y-79907333D01*
X116466761Y-80002571D01*
X116466761Y-80097809D01*
X115990571Y-80193047D01*
X116800095Y-79859714D02*
X117038190Y-80526380D01*
X117276285Y-79859714D01*
X118085809Y-80526380D02*
X118085809Y-80002571D01*
X118038190Y-79907333D01*
X117942952Y-79859714D01*
X117752476Y-79859714D01*
X117657238Y-79907333D01*
X118085809Y-80478761D02*
X117990571Y-80526380D01*
X117752476Y-80526380D01*
X117657238Y-80478761D01*
X117609619Y-80383523D01*
X117609619Y-80288285D01*
X117657238Y-80193047D01*
X117752476Y-80145428D01*
X117990571Y-80145428D01*
X118085809Y-80097809D01*
X119609619Y-80907333D02*
X119562000Y-80859714D01*
X119466761Y-80716857D01*
X119419142Y-80621619D01*
X119371523Y-80478761D01*
X119323904Y-80240666D01*
X119323904Y-80050190D01*
X119371523Y-79812095D01*
X119419142Y-79669238D01*
X119466761Y-79574000D01*
X119562000Y-79431142D01*
X119609619Y-79383523D01*
X119895333Y-79526380D02*
X120562000Y-79526380D01*
X120133428Y-80526380D01*
X121371523Y-79526380D02*
X121181047Y-79526380D01*
X121085809Y-79574000D01*
X121038190Y-79621619D01*
X120942952Y-79764476D01*
X120895333Y-79954952D01*
X120895333Y-80335904D01*
X120942952Y-80431142D01*
X120990571Y-80478761D01*
X121085809Y-80526380D01*
X121276285Y-80526380D01*
X121371523Y-80478761D01*
X121419142Y-80431142D01*
X121466761Y-80335904D01*
X121466761Y-80097809D01*
X121419142Y-80002571D01*
X121371523Y-79954952D01*
X121276285Y-79907333D01*
X121085809Y-79907333D01*
X120990571Y-79954952D01*
X120942952Y-80002571D01*
X120895333Y-80097809D01*
X122323904Y-79526380D02*
X122133428Y-79526380D01*
X122038190Y-79574000D01*
X121990571Y-79621619D01*
X121895333Y-79764476D01*
X121847714Y-79954952D01*
X121847714Y-80335904D01*
X121895333Y-80431142D01*
X121942952Y-80478761D01*
X122038190Y-80526380D01*
X122228666Y-80526380D01*
X122323904Y-80478761D01*
X122371523Y-80431142D01*
X122419142Y-80335904D01*
X122419142Y-80097809D01*
X122371523Y-80002571D01*
X122323904Y-79954952D01*
X122228666Y-79907333D01*
X122038190Y-79907333D01*
X121942952Y-79954952D01*
X121895333Y-80002571D01*
X121847714Y-80097809D01*
X123276285Y-79859714D02*
X123276285Y-80526380D01*
X123038190Y-79478761D02*
X122800095Y-80193047D01*
X123419142Y-80193047D01*
X123942952Y-79954952D02*
X123847714Y-79907333D01*
X123800095Y-79859714D01*
X123752476Y-79764476D01*
X123752476Y-79716857D01*
X123800095Y-79621619D01*
X123847714Y-79574000D01*
X123942952Y-79526380D01*
X124133428Y-79526380D01*
X124228666Y-79574000D01*
X124276285Y-79621619D01*
X124323904Y-79716857D01*
X124323904Y-79764476D01*
X124276285Y-79859714D01*
X124228666Y-79907333D01*
X124133428Y-79954952D01*
X123942952Y-79954952D01*
X123847714Y-80002571D01*
X123800095Y-80050190D01*
X123752476Y-80145428D01*
X123752476Y-80335904D01*
X123800095Y-80431142D01*
X123847714Y-80478761D01*
X123942952Y-80526380D01*
X124133428Y-80526380D01*
X124228666Y-80478761D01*
X124276285Y-80431142D01*
X124323904Y-80335904D01*
X124323904Y-80145428D01*
X124276285Y-80050190D01*
X124228666Y-80002571D01*
X124133428Y-79954952D01*
X125276285Y-80526380D02*
X124704857Y-80526380D01*
X124990571Y-80526380D02*
X124990571Y-79526380D01*
X124895333Y-79669238D01*
X124800095Y-79764476D01*
X124704857Y-79812095D01*
X125609619Y-80907333D02*
X125657238Y-80859714D01*
X125752476Y-80716857D01*
X125800095Y-80621619D01*
X125847714Y-80478761D01*
X125895333Y-80240666D01*
X125895333Y-80050190D01*
X125847714Y-79812095D01*
X125800095Y-79669238D01*
X125752476Y-79574000D01*
X125657238Y-79431142D01*
X125609619Y-79383523D01*
X107752476Y-82176380D02*
X107419142Y-81700190D01*
X107181047Y-82176380D02*
X107181047Y-81176380D01*
X107562000Y-81176380D01*
X107657238Y-81224000D01*
X107704857Y-81271619D01*
X107752476Y-81366857D01*
X107752476Y-81509714D01*
X107704857Y-81604952D01*
X107657238Y-81652571D01*
X107562000Y-81700190D01*
X107181047Y-81700190D01*
X108562000Y-82128761D02*
X108466761Y-82176380D01*
X108276285Y-82176380D01*
X108181047Y-82128761D01*
X108133428Y-82033523D01*
X108133428Y-81652571D01*
X108181047Y-81557333D01*
X108276285Y-81509714D01*
X108466761Y-81509714D01*
X108562000Y-81557333D01*
X108609619Y-81652571D01*
X108609619Y-81747809D01*
X108133428Y-81843047D01*
X108942952Y-81509714D02*
X109181047Y-82176380D01*
X109419142Y-81509714D01*
X111085809Y-82176380D02*
X110514380Y-82176380D01*
X110800095Y-82176380D02*
X110800095Y-81176380D01*
X110704857Y-81319238D01*
X110609619Y-81414476D01*
X110514380Y-81462095D01*
X111514380Y-82081142D02*
X111562000Y-82128761D01*
X111514380Y-82176380D01*
X111466761Y-82128761D01*
X111514380Y-82081142D01*
X111514380Y-82176380D01*
X112181047Y-81176380D02*
X112276285Y-81176380D01*
X112371523Y-81224000D01*
X112419142Y-81271619D01*
X112466761Y-81366857D01*
X112514380Y-81557333D01*
X112514380Y-81795428D01*
X112466761Y-81985904D01*
X112419142Y-82081142D01*
X112371523Y-82128761D01*
X112276285Y-82176380D01*
X112181047Y-82176380D01*
X112085809Y-82128761D01*
X112038190Y-82081142D01*
X111990571Y-81985904D01*
X111942952Y-81795428D01*
X111942952Y-81557333D01*
X111990571Y-81366857D01*
X112038190Y-81271619D01*
X112085809Y-81224000D01*
X112181047Y-81176380D01*
X114228666Y-82176380D02*
X113657238Y-82176380D01*
X113942952Y-82176380D02*
X113942952Y-81176380D01*
X113847714Y-81319238D01*
X113752476Y-81414476D01*
X113657238Y-81462095D01*
X115085809Y-81176380D02*
X114895333Y-81176380D01*
X114800095Y-81224000D01*
X114752476Y-81271619D01*
X114657238Y-81414476D01*
X114609619Y-81604952D01*
X114609619Y-81985904D01*
X114657238Y-82081142D01*
X114704857Y-82128761D01*
X114800095Y-82176380D01*
X114990571Y-82176380D01*
X115085809Y-82128761D01*
X115133428Y-82081142D01*
X115181047Y-81985904D01*
X115181047Y-81747809D01*
X115133428Y-81652571D01*
X115085809Y-81604952D01*
X114990571Y-81557333D01*
X114800095Y-81557333D01*
X114704857Y-81604952D01*
X114657238Y-81652571D01*
X114609619Y-81747809D01*
X116323904Y-81128761D02*
X115466761Y-82414476D01*
X116847714Y-81176380D02*
X116942952Y-81176380D01*
X117038190Y-81224000D01*
X117085809Y-81271619D01*
X117133428Y-81366857D01*
X117181047Y-81557333D01*
X117181047Y-81795428D01*
X117133428Y-81985904D01*
X117085809Y-82081142D01*
X117038190Y-82128761D01*
X116942952Y-82176380D01*
X116847714Y-82176380D01*
X116752476Y-82128761D01*
X116704857Y-82081142D01*
X116657238Y-81985904D01*
X116609619Y-81795428D01*
X116609619Y-81557333D01*
X116657238Y-81366857D01*
X116704857Y-81271619D01*
X116752476Y-81224000D01*
X116847714Y-81176380D01*
X118085809Y-81176380D02*
X117609619Y-81176380D01*
X117562000Y-81652571D01*
X117609619Y-81604952D01*
X117704857Y-81557333D01*
X117942952Y-81557333D01*
X118038190Y-81604952D01*
X118085809Y-81652571D01*
X118133428Y-81747809D01*
X118133428Y-81985904D01*
X118085809Y-82081142D01*
X118038190Y-82128761D01*
X117942952Y-82176380D01*
X117704857Y-82176380D01*
X117609619Y-82128761D01*
X117562000Y-82081142D01*
X119276285Y-81128761D02*
X118419142Y-82414476D01*
X119562000Y-81271619D02*
X119609619Y-81224000D01*
X119704857Y-81176380D01*
X119942952Y-81176380D01*
X120038190Y-81224000D01*
X120085809Y-81271619D01*
X120133428Y-81366857D01*
X120133428Y-81462095D01*
X120085809Y-81604952D01*
X119514380Y-82176380D01*
X120133428Y-82176380D01*
X120752476Y-81176380D02*
X120847714Y-81176380D01*
X120942952Y-81224000D01*
X120990571Y-81271619D01*
X121038190Y-81366857D01*
X121085809Y-81557333D01*
X121085809Y-81795428D01*
X121038190Y-81985904D01*
X120990571Y-82081142D01*
X120942952Y-82128761D01*
X120847714Y-82176380D01*
X120752476Y-82176380D01*
X120657238Y-82128761D01*
X120609619Y-82081142D01*
X120562000Y-81985904D01*
X120514380Y-81795428D01*
X120514380Y-81557333D01*
X120562000Y-81366857D01*
X120609619Y-81271619D01*
X120657238Y-81224000D01*
X120752476Y-81176380D01*
X121466761Y-81271619D02*
X121514380Y-81224000D01*
X121609619Y-81176380D01*
X121847714Y-81176380D01*
X121942952Y-81224000D01*
X121990571Y-81271619D01*
X122038190Y-81366857D01*
X122038190Y-81462095D01*
X121990571Y-81604952D01*
X121419142Y-82176380D01*
X122038190Y-82176380D01*
X122657238Y-81176380D02*
X122752476Y-81176380D01*
X122847714Y-81224000D01*
X122895333Y-81271619D01*
X122942952Y-81366857D01*
X122990571Y-81557333D01*
X122990571Y-81795428D01*
X122942952Y-81985904D01*
X122895333Y-82081142D01*
X122847714Y-82128761D01*
X122752476Y-82176380D01*
X122657238Y-82176380D01*
X122562000Y-82128761D01*
X122514380Y-82081142D01*
X122466761Y-81985904D01*
X122419142Y-81795428D01*
X122419142Y-81557333D01*
X122466761Y-81366857D01*
X122514380Y-81271619D01*
X122562000Y-81224000D01*
X122657238Y-81176380D01*
X68425001Y-58075001D02*
X132941001Y-58075001D01*
X68425001Y-111415001D02*
X134465001Y-111415001D01*
X132941001Y-58075001D02*
X134465001Y-59599001D01*
X134465001Y-111415001D02*
X134465001Y-110145001D01*
X134465001Y-110145001D02*
X137005001Y-107605001D01*
X137005001Y-107605001D02*
X137005001Y-73315001D01*
X137005001Y-73315001D02*
X134465001Y-70775001D01*
X134465001Y-70775001D02*
X134465001Y-59599001D01*
X68425001Y-58075001D02*
X68425001Y-111415001D01*
D11*
X69290000Y-110590000D02*
X69290000Y-101960000D01*
X69408095Y-110590000D02*
X69408095Y-101960000D01*
X69526190Y-110590000D02*
X69526190Y-101960000D01*
X69644285Y-110590000D02*
X69644285Y-101960000D01*
X69762380Y-110590000D02*
X69762380Y-101960000D01*
X69880475Y-110590000D02*
X69880475Y-101960000D01*
X69998570Y-110590000D02*
X69998570Y-101960000D01*
X70116665Y-110590000D02*
X70116665Y-101960000D01*
X70234760Y-110590000D02*
X70234760Y-101960000D01*
X70352855Y-110590000D02*
X70352855Y-101960000D01*
X70470950Y-110590000D02*
X70470950Y-101960000D01*
X70589045Y-110590000D02*
X70589045Y-101960000D01*
X70707140Y-110590000D02*
X70707140Y-101960000D01*
X70825235Y-110590000D02*
X70825235Y-101960000D01*
X70943330Y-110590000D02*
X70943330Y-101960000D01*
X71061425Y-110590000D02*
X71061425Y-101960000D01*
X71179520Y-110590000D02*
X71179520Y-101960000D01*
X71297615Y-110590000D02*
X71297615Y-101960000D01*
X71415710Y-110590000D02*
X71415710Y-101960000D01*
X71533805Y-110590000D02*
X71533805Y-101960000D01*
X71651900Y-110590000D02*
X71651900Y-101960000D01*
X70140000Y-101960000D02*
X70140000Y-101610000D01*
X70860000Y-101960000D02*
X70860000Y-101610000D01*
X72680000Y-101960000D02*
X72680000Y-101550000D01*
X73400000Y-101960000D02*
X73400000Y-101550000D01*
X75220000Y-101960000D02*
X75220000Y-101550000D01*
X75940000Y-101960000D02*
X75940000Y-101550000D01*
X71770000Y-110590000D02*
X71770000Y-101960000D01*
X74310000Y-110590000D02*
X74310000Y-101960000D01*
X69170000Y-110590000D02*
X69170000Y-101960000D01*
X69170000Y-101960000D02*
X76910000Y-101960000D01*
X76910000Y-110590000D02*
X76910000Y-101960000D01*
X69170000Y-110590000D02*
X76910000Y-110590000D01*
X69170000Y-99390000D02*
X70500000Y-99390000D01*
X69170000Y-100500000D02*
X69170000Y-99390000D01*
X73700000Y-75000000D02*
G75*
G03X73700000Y-75000000I-1700000J0D01*
G01*
X73836000Y-70612000D02*
G75*
G03X73836000Y-70612000I-1700000J0D01*
G01*
X119700000Y-65000000D02*
G75*
G03X119700000Y-65000000I-1700000J0D01*
G01*
X124700000Y-65000000D02*
G75*
G03X124700000Y-65000000I-1700000J0D01*
G01*
X129700000Y-65000000D02*
G75*
G03X129700000Y-65000000I-1700000J0D01*
G01*
X99156000Y-93726000D02*
G75*
G03X99156000Y-93726000I-2620000J0D01*
G01*
X96536000Y-92686000D02*
X96536000Y-91146000D01*
X96536000Y-96306000D02*
X96536000Y-94766000D01*
X96496000Y-92686000D02*
X96496000Y-91146000D01*
X96496000Y-96306000D02*
X96496000Y-94766000D01*
X96456000Y-96305000D02*
X96456000Y-94766000D01*
X96456000Y-92686000D02*
X96456000Y-91147000D01*
X96416000Y-96304000D02*
X96416000Y-94766000D01*
X96416000Y-92686000D02*
X96416000Y-91148000D01*
X96376000Y-96302000D02*
X96376000Y-94766000D01*
X96376000Y-92686000D02*
X96376000Y-91150000D01*
X96336000Y-96299000D02*
X96336000Y-94766000D01*
X96336000Y-92686000D02*
X96336000Y-91153000D01*
X96296000Y-96295000D02*
X96296000Y-94766000D01*
X96296000Y-92686000D02*
X96296000Y-91157000D01*
X96256000Y-96291000D02*
X96256000Y-94766000D01*
X96256000Y-92686000D02*
X96256000Y-91161000D01*
X96216000Y-96287000D02*
X96216000Y-94766000D01*
X96216000Y-92686000D02*
X96216000Y-91165000D01*
X96176000Y-96282000D02*
X96176000Y-94766000D01*
X96176000Y-92686000D02*
X96176000Y-91170000D01*
X96136000Y-96276000D02*
X96136000Y-94766000D01*
X96136000Y-92686000D02*
X96136000Y-91176000D01*
X96096000Y-96269000D02*
X96096000Y-94766000D01*
X96096000Y-92686000D02*
X96096000Y-91183000D01*
X96056000Y-96262000D02*
X96056000Y-94766000D01*
X96056000Y-92686000D02*
X96056000Y-91190000D01*
X96016000Y-96254000D02*
X96016000Y-94766000D01*
X96016000Y-92686000D02*
X96016000Y-91198000D01*
X95976000Y-96246000D02*
X95976000Y-94766000D01*
X95976000Y-92686000D02*
X95976000Y-91206000D01*
X95936000Y-96237000D02*
X95936000Y-94766000D01*
X95936000Y-92686000D02*
X95936000Y-91215000D01*
X95896000Y-96227000D02*
X95896000Y-94766000D01*
X95896000Y-92686000D02*
X95896000Y-91225000D01*
X95856000Y-96217000D02*
X95856000Y-94766000D01*
X95856000Y-92686000D02*
X95856000Y-91235000D01*
X95815000Y-96206000D02*
X95815000Y-94766000D01*
X95815000Y-92686000D02*
X95815000Y-91246000D01*
X95775000Y-96194000D02*
X95775000Y-94766000D01*
X95775000Y-92686000D02*
X95775000Y-91258000D01*
X95735000Y-96181000D02*
X95735000Y-94766000D01*
X95735000Y-92686000D02*
X95735000Y-91271000D01*
X95695000Y-96168000D02*
X95695000Y-94766000D01*
X95695000Y-92686000D02*
X95695000Y-91284000D01*
X95655000Y-96154000D02*
X95655000Y-94766000D01*
X95655000Y-92686000D02*
X95655000Y-91298000D01*
X95615000Y-96140000D02*
X95615000Y-94766000D01*
X95615000Y-92686000D02*
X95615000Y-91312000D01*
X95575000Y-96124000D02*
X95575000Y-94766000D01*
X95575000Y-92686000D02*
X95575000Y-91328000D01*
X95535000Y-96108000D02*
X95535000Y-94766000D01*
X95535000Y-92686000D02*
X95535000Y-91344000D01*
X95495000Y-96091000D02*
X95495000Y-94766000D01*
X95495000Y-92686000D02*
X95495000Y-91361000D01*
X95455000Y-96074000D02*
X95455000Y-94766000D01*
X95455000Y-92686000D02*
X95455000Y-91378000D01*
X95415000Y-96055000D02*
X95415000Y-94766000D01*
X95415000Y-92686000D02*
X95415000Y-91397000D01*
X95375000Y-96036000D02*
X95375000Y-94766000D01*
X95375000Y-92686000D02*
X95375000Y-91416000D01*
X95335000Y-96016000D02*
X95335000Y-94766000D01*
X95335000Y-92686000D02*
X95335000Y-91436000D01*
X95295000Y-95994000D02*
X95295000Y-94766000D01*
X95295000Y-92686000D02*
X95295000Y-91458000D01*
X95255000Y-95973000D02*
X95255000Y-94766000D01*
X95255000Y-92686000D02*
X95255000Y-91479000D01*
X95215000Y-95950000D02*
X95215000Y-94766000D01*
X95215000Y-92686000D02*
X95215000Y-91502000D01*
X95175000Y-95926000D02*
X95175000Y-94766000D01*
X95175000Y-92686000D02*
X95175000Y-91526000D01*
X95135000Y-95901000D02*
X95135000Y-94766000D01*
X95135000Y-92686000D02*
X95135000Y-91551000D01*
X95095000Y-95875000D02*
X95095000Y-94766000D01*
X95095000Y-92686000D02*
X95095000Y-91577000D01*
X95055000Y-95848000D02*
X95055000Y-94766000D01*
X95055000Y-92686000D02*
X95055000Y-91604000D01*
X95015000Y-95821000D02*
X95015000Y-94766000D01*
X95015000Y-92686000D02*
X95015000Y-91631000D01*
X94975000Y-95791000D02*
X94975000Y-94766000D01*
X94975000Y-92686000D02*
X94975000Y-91661000D01*
X94935000Y-95761000D02*
X94935000Y-94766000D01*
X94935000Y-92686000D02*
X94935000Y-91691000D01*
X94895000Y-95730000D02*
X94895000Y-94766000D01*
X94895000Y-92686000D02*
X94895000Y-91722000D01*
X94855000Y-95697000D02*
X94855000Y-94766000D01*
X94855000Y-92686000D02*
X94855000Y-91755000D01*
X94815000Y-95663000D02*
X94815000Y-94766000D01*
X94815000Y-92686000D02*
X94815000Y-91789000D01*
X94775000Y-95627000D02*
X94775000Y-94766000D01*
X94775000Y-92686000D02*
X94775000Y-91825000D01*
X94735000Y-95590000D02*
X94735000Y-94766000D01*
X94735000Y-92686000D02*
X94735000Y-91862000D01*
X94695000Y-95552000D02*
X94695000Y-94766000D01*
X94695000Y-92686000D02*
X94695000Y-91900000D01*
X94655000Y-95511000D02*
X94655000Y-94766000D01*
X94655000Y-92686000D02*
X94655000Y-91941000D01*
X94615000Y-95469000D02*
X94615000Y-94766000D01*
X94615000Y-92686000D02*
X94615000Y-91983000D01*
X94575000Y-95425000D02*
X94575000Y-94766000D01*
X94575000Y-92686000D02*
X94575000Y-92027000D01*
X94535000Y-95379000D02*
X94535000Y-94766000D01*
X94535000Y-92686000D02*
X94535000Y-92073000D01*
X94495000Y-95331000D02*
X94495000Y-92121000D01*
X94455000Y-95280000D02*
X94455000Y-92172000D01*
X94415000Y-95226000D02*
X94415000Y-92226000D01*
X94375000Y-95169000D02*
X94375000Y-92283000D01*
X94335000Y-95109000D02*
X94335000Y-92343000D01*
X94295000Y-95045000D02*
X94295000Y-92407000D01*
X94255000Y-94977000D02*
X94255000Y-92475000D01*
X94215000Y-94904000D02*
X94215000Y-92548000D01*
X94175000Y-94824000D02*
X94175000Y-92628000D01*
X94135000Y-94737000D02*
X94135000Y-92715000D01*
X94095000Y-94641000D02*
X94095000Y-92811000D01*
X94055000Y-94531000D02*
X94055000Y-92921000D01*
X94015000Y-94403000D02*
X94015000Y-93049000D01*
X93975000Y-94244000D02*
X93975000Y-93208000D01*
X93935000Y-94010000D02*
X93935000Y-93442000D01*
X99340775Y-95201000D02*
X98840775Y-95201000D01*
X99090775Y-95451000D02*
X99090775Y-94951000D01*
X92054775Y-108225000D02*
X92054775Y-107725000D01*
X92304775Y-107975000D02*
X91804775Y-107975000D01*
X86899000Y-106784000D02*
X86899000Y-106216000D01*
X86939000Y-107018000D02*
X86939000Y-105982000D01*
X86979000Y-107177000D02*
X86979000Y-105823000D01*
X87019000Y-107305000D02*
X87019000Y-105695000D01*
X87059000Y-107415000D02*
X87059000Y-105585000D01*
X87099000Y-107511000D02*
X87099000Y-105489000D01*
X87139000Y-107598000D02*
X87139000Y-105402000D01*
X87179000Y-107678000D02*
X87179000Y-105322000D01*
X87219000Y-107751000D02*
X87219000Y-105249000D01*
X87259000Y-107819000D02*
X87259000Y-105181000D01*
X87299000Y-107883000D02*
X87299000Y-105117000D01*
X87339000Y-107943000D02*
X87339000Y-105057000D01*
X87379000Y-108000000D02*
X87379000Y-105000000D01*
X87419000Y-108054000D02*
X87419000Y-104946000D01*
X87459000Y-108105000D02*
X87459000Y-104895000D01*
X87499000Y-105460000D02*
X87499000Y-104847000D01*
X87499000Y-108153000D02*
X87499000Y-107540000D01*
X87539000Y-105460000D02*
X87539000Y-104801000D01*
X87539000Y-108199000D02*
X87539000Y-107540000D01*
X87579000Y-105460000D02*
X87579000Y-104757000D01*
X87579000Y-108243000D02*
X87579000Y-107540000D01*
X87619000Y-105460000D02*
X87619000Y-104715000D01*
X87619000Y-108285000D02*
X87619000Y-107540000D01*
X87659000Y-105460000D02*
X87659000Y-104674000D01*
X87659000Y-108326000D02*
X87659000Y-107540000D01*
X87699000Y-105460000D02*
X87699000Y-104636000D01*
X87699000Y-108364000D02*
X87699000Y-107540000D01*
X87739000Y-105460000D02*
X87739000Y-104599000D01*
X87739000Y-108401000D02*
X87739000Y-107540000D01*
X87779000Y-105460000D02*
X87779000Y-104563000D01*
X87779000Y-108437000D02*
X87779000Y-107540000D01*
X87819000Y-105460000D02*
X87819000Y-104529000D01*
X87819000Y-108471000D02*
X87819000Y-107540000D01*
X87859000Y-105460000D02*
X87859000Y-104496000D01*
X87859000Y-108504000D02*
X87859000Y-107540000D01*
X87899000Y-105460000D02*
X87899000Y-104465000D01*
X87899000Y-108535000D02*
X87899000Y-107540000D01*
X87939000Y-105460000D02*
X87939000Y-104435000D01*
X87939000Y-108565000D02*
X87939000Y-107540000D01*
X87979000Y-105460000D02*
X87979000Y-104405000D01*
X87979000Y-108595000D02*
X87979000Y-107540000D01*
X88019000Y-105460000D02*
X88019000Y-104378000D01*
X88019000Y-108622000D02*
X88019000Y-107540000D01*
X88059000Y-105460000D02*
X88059000Y-104351000D01*
X88059000Y-108649000D02*
X88059000Y-107540000D01*
X88099000Y-105460000D02*
X88099000Y-104325000D01*
X88099000Y-108675000D02*
X88099000Y-107540000D01*
X88139000Y-105460000D02*
X88139000Y-104300000D01*
X88139000Y-108700000D02*
X88139000Y-107540000D01*
X88179000Y-105460000D02*
X88179000Y-104276000D01*
X88179000Y-108724000D02*
X88179000Y-107540000D01*
X88219000Y-105460000D02*
X88219000Y-104253000D01*
X88219000Y-108747000D02*
X88219000Y-107540000D01*
X88259000Y-105460000D02*
X88259000Y-104232000D01*
X88259000Y-108768000D02*
X88259000Y-107540000D01*
X88299000Y-105460000D02*
X88299000Y-104210000D01*
X88299000Y-108790000D02*
X88299000Y-107540000D01*
X88339000Y-105460000D02*
X88339000Y-104190000D01*
X88339000Y-108810000D02*
X88339000Y-107540000D01*
X88379000Y-105460000D02*
X88379000Y-104171000D01*
X88379000Y-108829000D02*
X88379000Y-107540000D01*
X88419000Y-105460000D02*
X88419000Y-104152000D01*
X88419000Y-108848000D02*
X88419000Y-107540000D01*
X88459000Y-105460000D02*
X88459000Y-104135000D01*
X88459000Y-108865000D02*
X88459000Y-107540000D01*
X88499000Y-105460000D02*
X88499000Y-104118000D01*
X88499000Y-108882000D02*
X88499000Y-107540000D01*
X88539000Y-105460000D02*
X88539000Y-104102000D01*
X88539000Y-108898000D02*
X88539000Y-107540000D01*
X88579000Y-105460000D02*
X88579000Y-104086000D01*
X88579000Y-108914000D02*
X88579000Y-107540000D01*
X88619000Y-105460000D02*
X88619000Y-104072000D01*
X88619000Y-108928000D02*
X88619000Y-107540000D01*
X88659000Y-105460000D02*
X88659000Y-104058000D01*
X88659000Y-108942000D02*
X88659000Y-107540000D01*
X88699000Y-105460000D02*
X88699000Y-104045000D01*
X88699000Y-108955000D02*
X88699000Y-107540000D01*
X88739000Y-105460000D02*
X88739000Y-104032000D01*
X88739000Y-108968000D02*
X88739000Y-107540000D01*
X88779000Y-105460000D02*
X88779000Y-104020000D01*
X88779000Y-108980000D02*
X88779000Y-107540000D01*
X88820000Y-105460000D02*
X88820000Y-104009000D01*
X88820000Y-108991000D02*
X88820000Y-107540000D01*
X88860000Y-105460000D02*
X88860000Y-103999000D01*
X88860000Y-109001000D02*
X88860000Y-107540000D01*
X88900000Y-105460000D02*
X88900000Y-103989000D01*
X88900000Y-109011000D02*
X88900000Y-107540000D01*
X88940000Y-105460000D02*
X88940000Y-103980000D01*
X88940000Y-109020000D02*
X88940000Y-107540000D01*
X88980000Y-105460000D02*
X88980000Y-103972000D01*
X88980000Y-109028000D02*
X88980000Y-107540000D01*
X89020000Y-105460000D02*
X89020000Y-103964000D01*
X89020000Y-109036000D02*
X89020000Y-107540000D01*
X89060000Y-105460000D02*
X89060000Y-103957000D01*
X89060000Y-109043000D02*
X89060000Y-107540000D01*
X89100000Y-105460000D02*
X89100000Y-103950000D01*
X89100000Y-109050000D02*
X89100000Y-107540000D01*
X89140000Y-105460000D02*
X89140000Y-103944000D01*
X89140000Y-109056000D02*
X89140000Y-107540000D01*
X89180000Y-105460000D02*
X89180000Y-103939000D01*
X89180000Y-109061000D02*
X89180000Y-107540000D01*
X89220000Y-105460000D02*
X89220000Y-103935000D01*
X89220000Y-109065000D02*
X89220000Y-107540000D01*
X89260000Y-105460000D02*
X89260000Y-103931000D01*
X89260000Y-109069000D02*
X89260000Y-107540000D01*
X89300000Y-105460000D02*
X89300000Y-103927000D01*
X89300000Y-109073000D02*
X89300000Y-107540000D01*
X89340000Y-105460000D02*
X89340000Y-103924000D01*
X89340000Y-109076000D02*
X89340000Y-107540000D01*
X89380000Y-105460000D02*
X89380000Y-103922000D01*
X89380000Y-109078000D02*
X89380000Y-107540000D01*
X89420000Y-105460000D02*
X89420000Y-103921000D01*
X89420000Y-109079000D02*
X89420000Y-107540000D01*
X89460000Y-109080000D02*
X89460000Y-107540000D01*
X89460000Y-105460000D02*
X89460000Y-103920000D01*
X89500000Y-109080000D02*
X89500000Y-107540000D01*
X89500000Y-105460000D02*
X89500000Y-103920000D01*
X92120000Y-106500000D02*
G75*
G03X92120000Y-106500000I-2620000J0D01*
G01*
X113220000Y-85630000D02*
X113220000Y-90370000D01*
X105780000Y-85630000D02*
X105780000Y-90370000D01*
X105780000Y-90370000D02*
X113220000Y-90370000D01*
X105780000Y-85630000D02*
X113220000Y-85630000D01*
X92506000Y-98706000D02*
X99946000Y-98706000D01*
X92506000Y-101446000D02*
X99946000Y-101446000D01*
X92506000Y-98706000D02*
X92506000Y-101446000D01*
X99946000Y-98706000D02*
X99946000Y-101446000D01*
X119620000Y-90000000D02*
G75*
G03X119620000Y-90000000I-2620000J0D01*
G01*
X117000000Y-91040000D02*
X117000000Y-92580000D01*
X117000000Y-87420000D02*
X117000000Y-88960000D01*
X117040000Y-91040000D02*
X117040000Y-92580000D01*
X117040000Y-87420000D02*
X117040000Y-88960000D01*
X117080000Y-87421000D02*
X117080000Y-88960000D01*
X117080000Y-91040000D02*
X117080000Y-92579000D01*
X117120000Y-87422000D02*
X117120000Y-88960000D01*
X117120000Y-91040000D02*
X117120000Y-92578000D01*
X117160000Y-87424000D02*
X117160000Y-88960000D01*
X117160000Y-91040000D02*
X117160000Y-92576000D01*
X117200000Y-87427000D02*
X117200000Y-88960000D01*
X117200000Y-91040000D02*
X117200000Y-92573000D01*
X117240000Y-87431000D02*
X117240000Y-88960000D01*
X117240000Y-91040000D02*
X117240000Y-92569000D01*
X117280000Y-87435000D02*
X117280000Y-88960000D01*
X117280000Y-91040000D02*
X117280000Y-92565000D01*
X117320000Y-87439000D02*
X117320000Y-88960000D01*
X117320000Y-91040000D02*
X117320000Y-92561000D01*
X117360000Y-87444000D02*
X117360000Y-88960000D01*
X117360000Y-91040000D02*
X117360000Y-92556000D01*
X117400000Y-87450000D02*
X117400000Y-88960000D01*
X117400000Y-91040000D02*
X117400000Y-92550000D01*
X117440000Y-87457000D02*
X117440000Y-88960000D01*
X117440000Y-91040000D02*
X117440000Y-92543000D01*
X117480000Y-87464000D02*
X117480000Y-88960000D01*
X117480000Y-91040000D02*
X117480000Y-92536000D01*
X117520000Y-87472000D02*
X117520000Y-88960000D01*
X117520000Y-91040000D02*
X117520000Y-92528000D01*
X117560000Y-87480000D02*
X117560000Y-88960000D01*
X117560000Y-91040000D02*
X117560000Y-92520000D01*
X117600000Y-87489000D02*
X117600000Y-88960000D01*
X117600000Y-91040000D02*
X117600000Y-92511000D01*
X117640000Y-87499000D02*
X117640000Y-88960000D01*
X117640000Y-91040000D02*
X117640000Y-92501000D01*
X117680000Y-87509000D02*
X117680000Y-88960000D01*
X117680000Y-91040000D02*
X117680000Y-92491000D01*
X117721000Y-87520000D02*
X117721000Y-88960000D01*
X117721000Y-91040000D02*
X117721000Y-92480000D01*
X117761000Y-87532000D02*
X117761000Y-88960000D01*
X117761000Y-91040000D02*
X117761000Y-92468000D01*
X117801000Y-87545000D02*
X117801000Y-88960000D01*
X117801000Y-91040000D02*
X117801000Y-92455000D01*
X117841000Y-87558000D02*
X117841000Y-88960000D01*
X117841000Y-91040000D02*
X117841000Y-92442000D01*
X117881000Y-87572000D02*
X117881000Y-88960000D01*
X117881000Y-91040000D02*
X117881000Y-92428000D01*
X117921000Y-87586000D02*
X117921000Y-88960000D01*
X117921000Y-91040000D02*
X117921000Y-92414000D01*
X117961000Y-87602000D02*
X117961000Y-88960000D01*
X117961000Y-91040000D02*
X117961000Y-92398000D01*
X118001000Y-87618000D02*
X118001000Y-88960000D01*
X118001000Y-91040000D02*
X118001000Y-92382000D01*
X118041000Y-87635000D02*
X118041000Y-88960000D01*
X118041000Y-91040000D02*
X118041000Y-92365000D01*
X118081000Y-87652000D02*
X118081000Y-88960000D01*
X118081000Y-91040000D02*
X118081000Y-92348000D01*
X118121000Y-87671000D02*
X118121000Y-88960000D01*
X118121000Y-91040000D02*
X118121000Y-92329000D01*
X118161000Y-87690000D02*
X118161000Y-88960000D01*
X118161000Y-91040000D02*
X118161000Y-92310000D01*
X118201000Y-87710000D02*
X118201000Y-88960000D01*
X118201000Y-91040000D02*
X118201000Y-92290000D01*
X118241000Y-87732000D02*
X118241000Y-88960000D01*
X118241000Y-91040000D02*
X118241000Y-92268000D01*
X118281000Y-87753000D02*
X118281000Y-88960000D01*
X118281000Y-91040000D02*
X118281000Y-92247000D01*
X118321000Y-87776000D02*
X118321000Y-88960000D01*
X118321000Y-91040000D02*
X118321000Y-92224000D01*
X118361000Y-87800000D02*
X118361000Y-88960000D01*
X118361000Y-91040000D02*
X118361000Y-92200000D01*
X118401000Y-87825000D02*
X118401000Y-88960000D01*
X118401000Y-91040000D02*
X118401000Y-92175000D01*
X118441000Y-87851000D02*
X118441000Y-88960000D01*
X118441000Y-91040000D02*
X118441000Y-92149000D01*
X118481000Y-87878000D02*
X118481000Y-88960000D01*
X118481000Y-91040000D02*
X118481000Y-92122000D01*
X118521000Y-87905000D02*
X118521000Y-88960000D01*
X118521000Y-91040000D02*
X118521000Y-92095000D01*
X118561000Y-87935000D02*
X118561000Y-88960000D01*
X118561000Y-91040000D02*
X118561000Y-92065000D01*
X118601000Y-87965000D02*
X118601000Y-88960000D01*
X118601000Y-91040000D02*
X118601000Y-92035000D01*
X118641000Y-87996000D02*
X118641000Y-88960000D01*
X118641000Y-91040000D02*
X118641000Y-92004000D01*
X118681000Y-88029000D02*
X118681000Y-88960000D01*
X118681000Y-91040000D02*
X118681000Y-91971000D01*
X118721000Y-88063000D02*
X118721000Y-88960000D01*
X118721000Y-91040000D02*
X118721000Y-91937000D01*
X118761000Y-88099000D02*
X118761000Y-88960000D01*
X118761000Y-91040000D02*
X118761000Y-91901000D01*
X118801000Y-88136000D02*
X118801000Y-88960000D01*
X118801000Y-91040000D02*
X118801000Y-91864000D01*
X118841000Y-88174000D02*
X118841000Y-88960000D01*
X118841000Y-91040000D02*
X118841000Y-91826000D01*
X118881000Y-88215000D02*
X118881000Y-88960000D01*
X118881000Y-91040000D02*
X118881000Y-91785000D01*
X118921000Y-88257000D02*
X118921000Y-88960000D01*
X118921000Y-91040000D02*
X118921000Y-91743000D01*
X118961000Y-88301000D02*
X118961000Y-88960000D01*
X118961000Y-91040000D02*
X118961000Y-91699000D01*
X119001000Y-88347000D02*
X119001000Y-88960000D01*
X119001000Y-91040000D02*
X119001000Y-91653000D01*
X119041000Y-88395000D02*
X119041000Y-91605000D01*
X119081000Y-88446000D02*
X119081000Y-91554000D01*
X119121000Y-88500000D02*
X119121000Y-91500000D01*
X119161000Y-88557000D02*
X119161000Y-91443000D01*
X119201000Y-88617000D02*
X119201000Y-91383000D01*
X119241000Y-88681000D02*
X119241000Y-91319000D01*
X119281000Y-88749000D02*
X119281000Y-91251000D01*
X119321000Y-88822000D02*
X119321000Y-91178000D01*
X119361000Y-88902000D02*
X119361000Y-91098000D01*
X119401000Y-88989000D02*
X119401000Y-91011000D01*
X119441000Y-89085000D02*
X119441000Y-90915000D01*
X119481000Y-89195000D02*
X119481000Y-90805000D01*
X119521000Y-89323000D02*
X119521000Y-90677000D01*
X119561000Y-89482000D02*
X119561000Y-90518000D01*
X119601000Y-89716000D02*
X119601000Y-90284000D01*
X114195225Y-88525000D02*
X114695225Y-88525000D01*
X114445225Y-88275000D02*
X114445225Y-88775000D01*
X119370000Y-95280000D02*
X119370000Y-102720000D01*
X114630000Y-95280000D02*
X114630000Y-102720000D01*
X119370000Y-95280000D02*
X114630000Y-95280000D01*
X119370000Y-102720000D02*
X114630000Y-102720000D01*
X90590000Y-73102064D02*
X90590000Y-71897936D01*
X92410000Y-73102064D02*
X92410000Y-71897936D01*
X109865000Y-72400000D02*
X109865000Y-76460000D01*
X109865000Y-76460000D02*
X112135000Y-76460000D01*
X112135000Y-76460000D02*
X112135000Y-72400000D01*
X120635000Y-76460000D02*
X120635000Y-72400000D01*
X118365000Y-76460000D02*
X120635000Y-76460000D01*
X118365000Y-72400000D02*
X118365000Y-76460000D01*
X126365000Y-72412500D02*
X126365000Y-76472500D01*
X126365000Y-76472500D02*
X128635000Y-76472500D01*
X128635000Y-76472500D02*
X128635000Y-72412500D01*
X82135000Y-74972500D02*
X82135000Y-70912500D01*
X79865000Y-74972500D02*
X82135000Y-74972500D01*
X79865000Y-70912500D02*
X79865000Y-74972500D01*
X73700000Y-86000000D02*
G75*
G03X73700000Y-86000000I-1700000J0D01*
G01*
X70806000Y-67370000D02*
X73466000Y-67370000D01*
X70806000Y-64770000D02*
X70806000Y-67370000D01*
X73466000Y-64770000D02*
X73466000Y-67370000D01*
X70806000Y-64770000D02*
X73466000Y-64770000D01*
X70806000Y-63500000D02*
X70806000Y-62170000D01*
X70806000Y-62170000D02*
X72136000Y-62170000D01*
X72700000Y-82200000D02*
X73000000Y-81900000D01*
X73000000Y-82500000D02*
X73000000Y-81900000D01*
X72700000Y-82200000D02*
X73000000Y-82500000D01*
X71800000Y-83050000D02*
X71200000Y-83050000D01*
X72500000Y-79600000D02*
X72500000Y-82400000D01*
X71200000Y-78950000D02*
X71800000Y-78950000D01*
X70500000Y-82400000D02*
X70500000Y-79600000D01*
X70500000Y-79650000D02*
G75*
G02X71200000Y-78950000I700000J0D01*
G01*
X71800000Y-78950000D02*
G75*
G02X72500000Y-79650000I0J-700000D01*
G01*
X72500000Y-82350000D02*
G75*
G02X71800000Y-83050000I-700000J0D01*
G01*
X71200000Y-83050000D02*
G75*
G02X70500000Y-82350000I0J700000D01*
G01*
X79106000Y-91282000D02*
X79106000Y-93122000D01*
X79106000Y-93122000D02*
X82946000Y-93122000D01*
X82946000Y-93122000D02*
X82946000Y-91282000D01*
X82946000Y-91282000D02*
X79106000Y-91282000D01*
X78156000Y-92202000D02*
X79106000Y-92202000D01*
X83896000Y-92202000D02*
X82946000Y-92202000D01*
X89154000Y-98882000D02*
X89154000Y-97932000D01*
X89154000Y-93142000D02*
X89154000Y-94092000D01*
X90074000Y-97932000D02*
X90074000Y-94092000D01*
X88234000Y-97932000D02*
X90074000Y-97932000D01*
X88234000Y-94092000D02*
X88234000Y-97932000D01*
X90074000Y-94092000D02*
X88234000Y-94092000D01*
X99964000Y-106076000D02*
X99964000Y-104236000D01*
X99964000Y-104236000D02*
X96124000Y-104236000D01*
X96124000Y-104236000D02*
X96124000Y-106076000D01*
X96124000Y-106076000D02*
X99964000Y-106076000D01*
X100914000Y-105156000D02*
X99964000Y-105156000D01*
X95174000Y-105156000D02*
X96124000Y-105156000D01*
X96886000Y-85440000D02*
X96886000Y-87280000D01*
X96886000Y-87280000D02*
X100726000Y-87280000D01*
X100726000Y-87280000D02*
X100726000Y-85440000D01*
X100726000Y-85440000D02*
X96886000Y-85440000D01*
X95936000Y-86360000D02*
X96886000Y-86360000D01*
X101676000Y-86360000D02*
X100726000Y-86360000D01*
X129180000Y-91500000D02*
X128230000Y-91500000D01*
X123440000Y-91500000D02*
X124390000Y-91500000D01*
X128230000Y-90580000D02*
X124390000Y-90580000D01*
X128230000Y-92420000D02*
X128230000Y-90580000D01*
X124390000Y-92420000D02*
X128230000Y-92420000D01*
X124390000Y-90580000D02*
X124390000Y-92420000D01*
X124920000Y-97390000D02*
X123080000Y-97390000D01*
X123080000Y-97390000D02*
X123080000Y-101230000D01*
X123080000Y-101230000D02*
X124920000Y-101230000D01*
X124920000Y-101230000D02*
X124920000Y-97390000D01*
X124000000Y-96440000D02*
X124000000Y-97390000D01*
X124000000Y-102180000D02*
X124000000Y-101230000D01*
X129500000Y-96444000D02*
X129500000Y-97394000D01*
X129500000Y-102184000D02*
X129500000Y-101234000D01*
X128580000Y-97394000D02*
X128580000Y-101234000D01*
X130420000Y-97394000D02*
X128580000Y-97394000D01*
X130420000Y-101234000D02*
X130420000Y-97394000D01*
X128580000Y-101234000D02*
X130420000Y-101234000D01*
X114590000Y-70385436D02*
X114590000Y-71589564D01*
X116410000Y-70385436D02*
X116410000Y-71589564D01*
X124410000Y-70397936D02*
X124410000Y-71602064D01*
X122590000Y-70397936D02*
X122590000Y-71602064D01*
X130590000Y-70385436D02*
X130590000Y-71589564D01*
X132410000Y-70385436D02*
X132410000Y-71589564D01*
X92102064Y-66410000D02*
X90897936Y-66410000D01*
X92102064Y-64590000D02*
X90897936Y-64590000D01*
X83114564Y-66410000D02*
X81910436Y-66410000D01*
X83114564Y-64590000D02*
X81910436Y-64590000D01*
X86536000Y-86106000D02*
G75*
G03X86536000Y-86106000I-1700000J0D01*
G01*
X99500000Y-71000000D02*
X104000000Y-71000000D01*
X98250000Y-67000000D02*
X98250000Y-68500000D01*
X104000000Y-64500000D02*
X99500000Y-64500000D01*
X105250000Y-68500000D02*
X105250000Y-67000000D01*
X107810000Y-92670000D02*
G75*
G02X105810000Y-92670000I-1000000J0D01*
G01*
X105810000Y-92670000D02*
X104160000Y-92670000D01*
X104160000Y-92670000D02*
X104160000Y-102950000D01*
X104160000Y-102950000D02*
X109460000Y-102950000D01*
X109460000Y-102950000D02*
X109460000Y-92670000D01*
X109460000Y-92670000D02*
X107810000Y-92670000D01*
X101670000Y-92610000D02*
X101670000Y-103010000D01*
X101670000Y-103010000D02*
X111950000Y-103010000D01*
X111950000Y-103010000D02*
X111950000Y-92610000D01*
X111950000Y-92610000D02*
X101670000Y-92610000D01*
X84200000Y-102362000D02*
G75*
G03X84200000Y-102362000I-1700000J0D01*
G01*
X92124000Y-86106000D02*
G75*
G03X92124000Y-86106000I-1700000J0D01*
G01*
X135700000Y-97500000D02*
G75*
G03X135700000Y-97500000I-1700000J0D01*
G01*
D10*
X71405904Y-58888380D02*
X72072571Y-59888380D01*
X72072571Y-58888380D02*
X71405904Y-59888380D01*
X72405904Y-59602666D02*
X72882095Y-59602666D01*
X72310666Y-59888380D02*
X72644000Y-58888380D01*
X72977333Y-59888380D01*
X73834476Y-59888380D02*
X73263047Y-59888380D01*
X73548761Y-59888380D02*
X73548761Y-58888380D01*
X73453523Y-59031238D01*
X73358285Y-59126476D01*
X73263047Y-59174095D01*
X130909001Y-79768143D02*
X130956620Y-79815762D01*
X130909001Y-79863381D01*
X130861381Y-79815762D01*
X130909001Y-79768143D01*
X130909001Y-79863381D01*
X72452380Y-104333333D02*
X73166666Y-104333333D01*
X73309523Y-104380952D01*
X73404761Y-104476190D01*
X73452380Y-104619047D01*
X73452380Y-104714285D01*
X72547619Y-103904761D02*
X72500000Y-103857142D01*
X72452380Y-103761904D01*
X72452380Y-103523809D01*
X72500000Y-103428571D01*
X72547619Y-103380952D01*
X72642857Y-103333333D01*
X72738095Y-103333333D01*
X72880952Y-103380952D01*
X73452380Y-103952380D01*
X73452380Y-103333333D01*
X74176095Y-76160380D02*
X74747523Y-76160380D01*
X74461809Y-77160380D02*
X74461809Y-76160380D01*
X75080857Y-77160380D02*
X75080857Y-76160380D01*
X75461809Y-76160380D01*
X75557047Y-76208000D01*
X75604666Y-76255619D01*
X75652285Y-76350857D01*
X75652285Y-76493714D01*
X75604666Y-76588952D01*
X75557047Y-76636571D01*
X75461809Y-76684190D01*
X75080857Y-76684190D01*
X76128476Y-77160380D02*
X76318952Y-77160380D01*
X76414190Y-77112761D01*
X76461809Y-77065142D01*
X76557047Y-76922285D01*
X76604666Y-76731809D01*
X76604666Y-76350857D01*
X76557047Y-76255619D01*
X76509428Y-76208000D01*
X76414190Y-76160380D01*
X76223714Y-76160380D01*
X76128476Y-76208000D01*
X76080857Y-76255619D01*
X76033238Y-76350857D01*
X76033238Y-76588952D01*
X76080857Y-76684190D01*
X76128476Y-76731809D01*
X76223714Y-76779428D01*
X76414190Y-76779428D01*
X76509428Y-76731809D01*
X76557047Y-76684190D01*
X76604666Y-76588952D01*
X74430095Y-70064380D02*
X75001523Y-70064380D01*
X74715809Y-71064380D02*
X74715809Y-70064380D01*
X75334857Y-71064380D02*
X75334857Y-70064380D01*
X75715809Y-70064380D01*
X75811047Y-70112000D01*
X75858666Y-70159619D01*
X75906285Y-70254857D01*
X75906285Y-70397714D01*
X75858666Y-70492952D01*
X75811047Y-70540571D01*
X75715809Y-70588190D01*
X75334857Y-70588190D01*
X76858666Y-71064380D02*
X76287238Y-71064380D01*
X76572952Y-71064380D02*
X76572952Y-70064380D01*
X76477714Y-70207238D01*
X76382476Y-70302476D01*
X76287238Y-70350095D01*
X116738095Y-61954380D02*
X117309523Y-61954380D01*
X117023809Y-62954380D02*
X117023809Y-61954380D01*
X117642857Y-62954380D02*
X117642857Y-61954380D01*
X118023809Y-61954380D01*
X118119047Y-62002000D01*
X118166666Y-62049619D01*
X118214285Y-62144857D01*
X118214285Y-62287714D01*
X118166666Y-62382952D01*
X118119047Y-62430571D01*
X118023809Y-62478190D01*
X117642857Y-62478190D01*
X119119047Y-61954380D02*
X118642857Y-61954380D01*
X118595238Y-62430571D01*
X118642857Y-62382952D01*
X118738095Y-62335333D01*
X118976190Y-62335333D01*
X119071428Y-62382952D01*
X119119047Y-62430571D01*
X119166666Y-62525809D01*
X119166666Y-62763904D01*
X119119047Y-62859142D01*
X119071428Y-62906761D01*
X118976190Y-62954380D01*
X118738095Y-62954380D01*
X118642857Y-62906761D01*
X118595238Y-62859142D01*
X121738095Y-61954380D02*
X122309523Y-61954380D01*
X122023809Y-62954380D02*
X122023809Y-61954380D01*
X122642857Y-62954380D02*
X122642857Y-61954380D01*
X123023809Y-61954380D01*
X123119047Y-62002000D01*
X123166666Y-62049619D01*
X123214285Y-62144857D01*
X123214285Y-62287714D01*
X123166666Y-62382952D01*
X123119047Y-62430571D01*
X123023809Y-62478190D01*
X122642857Y-62478190D01*
X124071428Y-61954380D02*
X123880952Y-61954380D01*
X123785714Y-62002000D01*
X123738095Y-62049619D01*
X123642857Y-62192476D01*
X123595238Y-62382952D01*
X123595238Y-62763904D01*
X123642857Y-62859142D01*
X123690476Y-62906761D01*
X123785714Y-62954380D01*
X123976190Y-62954380D01*
X124071428Y-62906761D01*
X124119047Y-62859142D01*
X124166666Y-62763904D01*
X124166666Y-62525809D01*
X124119047Y-62430571D01*
X124071428Y-62382952D01*
X123976190Y-62335333D01*
X123785714Y-62335333D01*
X123690476Y-62382952D01*
X123642857Y-62430571D01*
X123595238Y-62525809D01*
X126738095Y-61954380D02*
X127309523Y-61954380D01*
X127023809Y-62954380D02*
X127023809Y-61954380D01*
X127642857Y-62954380D02*
X127642857Y-61954380D01*
X128023809Y-61954380D01*
X128119047Y-62002000D01*
X128166666Y-62049619D01*
X128214285Y-62144857D01*
X128214285Y-62287714D01*
X128166666Y-62382952D01*
X128119047Y-62430571D01*
X128023809Y-62478190D01*
X127642857Y-62478190D01*
X128547619Y-61954380D02*
X129214285Y-61954380D01*
X128785714Y-62954380D01*
X92543333Y-94337142D02*
X92495714Y-94384761D01*
X92352857Y-94432380D01*
X92257619Y-94432380D01*
X92114761Y-94384761D01*
X92019523Y-94289523D01*
X91971904Y-94194285D01*
X91924285Y-94003809D01*
X91924285Y-93860952D01*
X91971904Y-93670476D01*
X92019523Y-93575238D01*
X92114761Y-93480000D01*
X92257619Y-93432380D01*
X92352857Y-93432380D01*
X92495714Y-93480000D01*
X92543333Y-93527619D01*
X93495714Y-94432380D02*
X92924285Y-94432380D01*
X93210000Y-94432380D02*
X93210000Y-93432380D01*
X93114761Y-93575238D01*
X93019523Y-93670476D01*
X92924285Y-93718095D01*
X89333333Y-103227142D02*
X89285714Y-103274761D01*
X89142857Y-103322380D01*
X89047619Y-103322380D01*
X88904761Y-103274761D01*
X88809523Y-103179523D01*
X88761904Y-103084285D01*
X88714285Y-102893809D01*
X88714285Y-102750952D01*
X88761904Y-102560476D01*
X88809523Y-102465238D01*
X88904761Y-102370000D01*
X89047619Y-102322380D01*
X89142857Y-102322380D01*
X89285714Y-102370000D01*
X89333333Y-102417619D01*
X89714285Y-102417619D02*
X89761904Y-102370000D01*
X89857142Y-102322380D01*
X90095238Y-102322380D01*
X90190476Y-102370000D01*
X90238095Y-102417619D01*
X90285714Y-102512857D01*
X90285714Y-102608095D01*
X90238095Y-102750952D01*
X89666666Y-103322380D01*
X90285714Y-103322380D01*
X109307333Y-87987142D02*
X109259714Y-88034761D01*
X109116857Y-88082380D01*
X109021619Y-88082380D01*
X108878761Y-88034761D01*
X108783523Y-87939523D01*
X108735904Y-87844285D01*
X108688285Y-87653809D01*
X108688285Y-87510952D01*
X108735904Y-87320476D01*
X108783523Y-87225238D01*
X108878761Y-87130000D01*
X109021619Y-87082380D01*
X109116857Y-87082380D01*
X109259714Y-87130000D01*
X109307333Y-87177619D01*
X109640666Y-87082380D02*
X110259714Y-87082380D01*
X109926380Y-87463333D01*
X110069238Y-87463333D01*
X110164476Y-87510952D01*
X110212095Y-87558571D01*
X110259714Y-87653809D01*
X110259714Y-87891904D01*
X110212095Y-87987142D01*
X110164476Y-88034761D01*
X110069238Y-88082380D01*
X109783523Y-88082380D01*
X109688285Y-88034761D01*
X109640666Y-87987142D01*
X96099333Y-100433142D02*
X96051714Y-100480761D01*
X95908857Y-100528380D01*
X95813619Y-100528380D01*
X95670761Y-100480761D01*
X95575523Y-100385523D01*
X95527904Y-100290285D01*
X95480285Y-100099809D01*
X95480285Y-99956952D01*
X95527904Y-99766476D01*
X95575523Y-99671238D01*
X95670761Y-99576000D01*
X95813619Y-99528380D01*
X95908857Y-99528380D01*
X96051714Y-99576000D01*
X96099333Y-99623619D01*
X96956476Y-99861714D02*
X96956476Y-100528380D01*
X96718380Y-99480761D02*
X96480285Y-100195047D01*
X97099333Y-100195047D01*
X116833333Y-86607142D02*
X116785714Y-86654761D01*
X116642857Y-86702380D01*
X116547619Y-86702380D01*
X116404761Y-86654761D01*
X116309523Y-86559523D01*
X116261904Y-86464285D01*
X116214285Y-86273809D01*
X116214285Y-86130952D01*
X116261904Y-85940476D01*
X116309523Y-85845238D01*
X116404761Y-85750000D01*
X116547619Y-85702380D01*
X116642857Y-85702380D01*
X116785714Y-85750000D01*
X116833333Y-85797619D01*
X117738095Y-85702380D02*
X117261904Y-85702380D01*
X117214285Y-86178571D01*
X117261904Y-86130952D01*
X117357142Y-86083333D01*
X117595238Y-86083333D01*
X117690476Y-86130952D01*
X117738095Y-86178571D01*
X117785714Y-86273809D01*
X117785714Y-86511904D01*
X117738095Y-86607142D01*
X117690476Y-86654761D01*
X117595238Y-86702380D01*
X117357142Y-86702380D01*
X117261904Y-86654761D01*
X117214285Y-86607142D01*
X117451142Y-99226666D02*
X117498761Y-99274285D01*
X117546380Y-99417142D01*
X117546380Y-99512380D01*
X117498761Y-99655238D01*
X117403523Y-99750476D01*
X117308285Y-99798095D01*
X117117809Y-99845714D01*
X116974952Y-99845714D01*
X116784476Y-99798095D01*
X116689238Y-99750476D01*
X116594000Y-99655238D01*
X116546380Y-99512380D01*
X116546380Y-99417142D01*
X116594000Y-99274285D01*
X116641619Y-99226666D01*
X116546380Y-98369523D02*
X116546380Y-98560000D01*
X116594000Y-98655238D01*
X116641619Y-98702857D01*
X116784476Y-98798095D01*
X116974952Y-98845714D01*
X117355904Y-98845714D01*
X117451142Y-98798095D01*
X117498761Y-98750476D01*
X117546380Y-98655238D01*
X117546380Y-98464761D01*
X117498761Y-98369523D01*
X117451142Y-98321904D01*
X117355904Y-98274285D01*
X117117809Y-98274285D01*
X117022571Y-98321904D01*
X116974952Y-98369523D01*
X116927333Y-98464761D01*
X116927333Y-98655238D01*
X116974952Y-98750476D01*
X117022571Y-98798095D01*
X117117809Y-98845714D01*
X90037142Y-72666666D02*
X90084761Y-72714285D01*
X90132380Y-72857142D01*
X90132380Y-72952380D01*
X90084761Y-73095238D01*
X89989523Y-73190476D01*
X89894285Y-73238095D01*
X89703809Y-73285714D01*
X89560952Y-73285714D01*
X89370476Y-73238095D01*
X89275238Y-73190476D01*
X89180000Y-73095238D01*
X89132380Y-72952380D01*
X89132380Y-72857142D01*
X89180000Y-72714285D01*
X89227619Y-72666666D01*
X89132380Y-72333333D02*
X89132380Y-71666666D01*
X90132380Y-72095238D01*
X109632380Y-74738095D02*
X108632380Y-74738095D01*
X108632380Y-74500000D01*
X108680000Y-74357142D01*
X108775238Y-74261904D01*
X108870476Y-74214285D01*
X109060952Y-74166666D01*
X109203809Y-74166666D01*
X109394285Y-74214285D01*
X109489523Y-74261904D01*
X109584761Y-74357142D01*
X109632380Y-74500000D01*
X109632380Y-74738095D01*
X109632380Y-73214285D02*
X109632380Y-73785714D01*
X109632380Y-73500000D02*
X108632380Y-73500000D01*
X108775238Y-73595238D01*
X108870476Y-73690476D01*
X108918095Y-73785714D01*
X118132380Y-74738095D02*
X117132380Y-74738095D01*
X117132380Y-74500000D01*
X117180000Y-74357142D01*
X117275238Y-74261904D01*
X117370476Y-74214285D01*
X117560952Y-74166666D01*
X117703809Y-74166666D01*
X117894285Y-74214285D01*
X117989523Y-74261904D01*
X118084761Y-74357142D01*
X118132380Y-74500000D01*
X118132380Y-74738095D01*
X117227619Y-73785714D02*
X117180000Y-73738095D01*
X117132380Y-73642857D01*
X117132380Y-73404761D01*
X117180000Y-73309523D01*
X117227619Y-73261904D01*
X117322857Y-73214285D01*
X117418095Y-73214285D01*
X117560952Y-73261904D01*
X118132380Y-73833333D01*
X118132380Y-73214285D01*
X126132380Y-74750595D02*
X125132380Y-74750595D01*
X125132380Y-74512500D01*
X125180000Y-74369642D01*
X125275238Y-74274404D01*
X125370476Y-74226785D01*
X125560952Y-74179166D01*
X125703809Y-74179166D01*
X125894285Y-74226785D01*
X125989523Y-74274404D01*
X126084761Y-74369642D01*
X126132380Y-74512500D01*
X126132380Y-74750595D01*
X125132380Y-73845833D02*
X125132380Y-73226785D01*
X125513333Y-73560119D01*
X125513333Y-73417261D01*
X125560952Y-73322023D01*
X125608571Y-73274404D01*
X125703809Y-73226785D01*
X125941904Y-73226785D01*
X126037142Y-73274404D01*
X126084761Y-73322023D01*
X126132380Y-73417261D01*
X126132380Y-73702976D01*
X126084761Y-73798214D01*
X126037142Y-73845833D01*
X79632380Y-73250595D02*
X78632380Y-73250595D01*
X78632380Y-73012500D01*
X78680000Y-72869642D01*
X78775238Y-72774404D01*
X78870476Y-72726785D01*
X79060952Y-72679166D01*
X79203809Y-72679166D01*
X79394285Y-72726785D01*
X79489523Y-72774404D01*
X79584761Y-72869642D01*
X79632380Y-73012500D01*
X79632380Y-73250595D01*
X78965714Y-71822023D02*
X79632380Y-71822023D01*
X78584761Y-72060119D02*
X79299047Y-72298214D01*
X79299047Y-71679166D01*
X70738095Y-88860380D02*
X71309523Y-88860380D01*
X71023809Y-89860380D02*
X71023809Y-88860380D01*
X71642857Y-89860380D02*
X71642857Y-88860380D01*
X72023809Y-88860380D01*
X72119047Y-88908000D01*
X72166666Y-88955619D01*
X72214285Y-89050857D01*
X72214285Y-89193714D01*
X72166666Y-89288952D01*
X72119047Y-89336571D01*
X72023809Y-89384190D01*
X71642857Y-89384190D01*
X72785714Y-89288952D02*
X72690476Y-89241333D01*
X72642857Y-89193714D01*
X72595238Y-89098476D01*
X72595238Y-89050857D01*
X72642857Y-88955619D01*
X72690476Y-88908000D01*
X72785714Y-88860380D01*
X72976190Y-88860380D01*
X73071428Y-88908000D01*
X73119047Y-88955619D01*
X73166666Y-89050857D01*
X73166666Y-89098476D01*
X73119047Y-89193714D01*
X73071428Y-89241333D01*
X72976190Y-89288952D01*
X72785714Y-89288952D01*
X72690476Y-89336571D01*
X72642857Y-89384190D01*
X72595238Y-89479428D01*
X72595238Y-89669904D01*
X72642857Y-89765142D01*
X72690476Y-89812761D01*
X72785714Y-89860380D01*
X72976190Y-89860380D01*
X73071428Y-89812761D01*
X73119047Y-89765142D01*
X73166666Y-89669904D01*
X73166666Y-89479428D01*
X73119047Y-89384190D01*
X73071428Y-89336571D01*
X72976190Y-89288952D01*
X74342666Y-65492380D02*
X74342666Y-66206666D01*
X74295047Y-66349523D01*
X74199809Y-66444761D01*
X74056952Y-66492380D01*
X73961714Y-66492380D01*
X75342666Y-66492380D02*
X74771238Y-66492380D01*
X75056952Y-66492380D02*
X75056952Y-65492380D01*
X74961714Y-65635238D01*
X74866476Y-65730476D01*
X74771238Y-65778095D01*
X69152380Y-81833333D02*
X69866666Y-81833333D01*
X70009523Y-81880952D01*
X70104761Y-81976190D01*
X70152380Y-82119047D01*
X70152380Y-82214285D01*
X70152380Y-81357142D02*
X69152380Y-81357142D01*
X69152380Y-80976190D01*
X69200000Y-80880952D01*
X69247619Y-80833333D01*
X69342857Y-80785714D01*
X69485714Y-80785714D01*
X69580952Y-80833333D01*
X69628571Y-80880952D01*
X69676190Y-80976190D01*
X69676190Y-81357142D01*
X70152380Y-79833333D02*
X70152380Y-80404761D01*
X70152380Y-80119047D02*
X69152380Y-80119047D01*
X69295238Y-80214285D01*
X69390476Y-80309523D01*
X69438095Y-80404761D01*
X80859333Y-92654380D02*
X80526000Y-92178190D01*
X80287904Y-92654380D02*
X80287904Y-91654380D01*
X80668857Y-91654380D01*
X80764095Y-91702000D01*
X80811714Y-91749619D01*
X80859333Y-91844857D01*
X80859333Y-91987714D01*
X80811714Y-92082952D01*
X80764095Y-92130571D01*
X80668857Y-92178190D01*
X80287904Y-92178190D01*
X81811714Y-92654380D02*
X81240285Y-92654380D01*
X81526000Y-92654380D02*
X81526000Y-91654380D01*
X81430761Y-91797238D01*
X81335523Y-91892476D01*
X81240285Y-91940095D01*
X89606380Y-96178666D02*
X89130190Y-96512000D01*
X89606380Y-96750095D02*
X88606380Y-96750095D01*
X88606380Y-96369142D01*
X88654000Y-96273904D01*
X88701619Y-96226285D01*
X88796857Y-96178666D01*
X88939714Y-96178666D01*
X89034952Y-96226285D01*
X89082571Y-96273904D01*
X89130190Y-96369142D01*
X89130190Y-96750095D01*
X88701619Y-95797714D02*
X88654000Y-95750095D01*
X88606380Y-95654857D01*
X88606380Y-95416761D01*
X88654000Y-95321523D01*
X88701619Y-95273904D01*
X88796857Y-95226285D01*
X88892095Y-95226285D01*
X89034952Y-95273904D01*
X89606380Y-95845333D01*
X89606380Y-95226285D01*
X97877333Y-105608380D02*
X97544000Y-105132190D01*
X97305904Y-105608380D02*
X97305904Y-104608380D01*
X97686857Y-104608380D01*
X97782095Y-104656000D01*
X97829714Y-104703619D01*
X97877333Y-104798857D01*
X97877333Y-104941714D01*
X97829714Y-105036952D01*
X97782095Y-105084571D01*
X97686857Y-105132190D01*
X97305904Y-105132190D01*
X98210666Y-104608380D02*
X98829714Y-104608380D01*
X98496380Y-104989333D01*
X98639238Y-104989333D01*
X98734476Y-105036952D01*
X98782095Y-105084571D01*
X98829714Y-105179809D01*
X98829714Y-105417904D01*
X98782095Y-105513142D01*
X98734476Y-105560761D01*
X98639238Y-105608380D01*
X98353523Y-105608380D01*
X98258285Y-105560761D01*
X98210666Y-105513142D01*
X98385333Y-86812380D02*
X98052000Y-86336190D01*
X97813904Y-86812380D02*
X97813904Y-85812380D01*
X98194857Y-85812380D01*
X98290095Y-85860000D01*
X98337714Y-85907619D01*
X98385333Y-86002857D01*
X98385333Y-86145714D01*
X98337714Y-86240952D01*
X98290095Y-86288571D01*
X98194857Y-86336190D01*
X97813904Y-86336190D01*
X99242476Y-86145714D02*
X99242476Y-86812380D01*
X99004380Y-85764761D02*
X98766285Y-86479047D01*
X99385333Y-86479047D01*
X126143333Y-91892380D02*
X125810000Y-91416190D01*
X125571904Y-91892380D02*
X125571904Y-90892380D01*
X125952857Y-90892380D01*
X126048095Y-90940000D01*
X126095714Y-90987619D01*
X126143333Y-91082857D01*
X126143333Y-91225714D01*
X126095714Y-91320952D01*
X126048095Y-91368571D01*
X125952857Y-91416190D01*
X125571904Y-91416190D01*
X127048095Y-90892380D02*
X126571904Y-90892380D01*
X126524285Y-91368571D01*
X126571904Y-91320952D01*
X126667142Y-91273333D01*
X126905238Y-91273333D01*
X127000476Y-91320952D01*
X127048095Y-91368571D01*
X127095714Y-91463809D01*
X127095714Y-91701904D01*
X127048095Y-91797142D01*
X127000476Y-91844761D01*
X126905238Y-91892380D01*
X126667142Y-91892380D01*
X126571904Y-91844761D01*
X126524285Y-91797142D01*
X124658380Y-99734666D02*
X124182190Y-100068000D01*
X124658380Y-100306095D02*
X123658380Y-100306095D01*
X123658380Y-99925142D01*
X123706000Y-99829904D01*
X123753619Y-99782285D01*
X123848857Y-99734666D01*
X123991714Y-99734666D01*
X124086952Y-99782285D01*
X124134571Y-99829904D01*
X124182190Y-99925142D01*
X124182190Y-100306095D01*
X123658380Y-98877523D02*
X123658380Y-99068000D01*
X123706000Y-99163238D01*
X123753619Y-99210857D01*
X123896476Y-99306095D01*
X124086952Y-99353714D01*
X124467904Y-99353714D01*
X124563142Y-99306095D01*
X124610761Y-99258476D01*
X124658380Y-99163238D01*
X124658380Y-98972761D01*
X124610761Y-98877523D01*
X124563142Y-98829904D01*
X124467904Y-98782285D01*
X124229809Y-98782285D01*
X124134571Y-98829904D01*
X124086952Y-98877523D01*
X124039333Y-98972761D01*
X124039333Y-99163238D01*
X124086952Y-99258476D01*
X124134571Y-99306095D01*
X124229809Y-99353714D01*
X129992380Y-99480666D02*
X129516190Y-99814000D01*
X129992380Y-100052095D02*
X128992380Y-100052095D01*
X128992380Y-99671142D01*
X129040000Y-99575904D01*
X129087619Y-99528285D01*
X129182857Y-99480666D01*
X129325714Y-99480666D01*
X129420952Y-99528285D01*
X129468571Y-99575904D01*
X129516190Y-99671142D01*
X129516190Y-100052095D01*
X128992380Y-99147333D02*
X128992380Y-98480666D01*
X129992380Y-98909238D01*
X117772380Y-71154166D02*
X117296190Y-71487500D01*
X117772380Y-71725595D02*
X116772380Y-71725595D01*
X116772380Y-71344642D01*
X116820000Y-71249404D01*
X116867619Y-71201785D01*
X116962857Y-71154166D01*
X117105714Y-71154166D01*
X117200952Y-71201785D01*
X117248571Y-71249404D01*
X117296190Y-71344642D01*
X117296190Y-71725595D01*
X117200952Y-70582738D02*
X117153333Y-70677976D01*
X117105714Y-70725595D01*
X117010476Y-70773214D01*
X116962857Y-70773214D01*
X116867619Y-70725595D01*
X116820000Y-70677976D01*
X116772380Y-70582738D01*
X116772380Y-70392261D01*
X116820000Y-70297023D01*
X116867619Y-70249404D01*
X116962857Y-70201785D01*
X117010476Y-70201785D01*
X117105714Y-70249404D01*
X117153333Y-70297023D01*
X117200952Y-70392261D01*
X117200952Y-70582738D01*
X117248571Y-70677976D01*
X117296190Y-70725595D01*
X117391428Y-70773214D01*
X117581904Y-70773214D01*
X117677142Y-70725595D01*
X117724761Y-70677976D01*
X117772380Y-70582738D01*
X117772380Y-70392261D01*
X117724761Y-70297023D01*
X117677142Y-70249404D01*
X117581904Y-70201785D01*
X117391428Y-70201785D01*
X117296190Y-70249404D01*
X117248571Y-70297023D01*
X117200952Y-70392261D01*
X125772380Y-71166666D02*
X125296190Y-71500000D01*
X125772380Y-71738095D02*
X124772380Y-71738095D01*
X124772380Y-71357142D01*
X124820000Y-71261904D01*
X124867619Y-71214285D01*
X124962857Y-71166666D01*
X125105714Y-71166666D01*
X125200952Y-71214285D01*
X125248571Y-71261904D01*
X125296190Y-71357142D01*
X125296190Y-71738095D01*
X125772380Y-70690476D02*
X125772380Y-70500000D01*
X125724761Y-70404761D01*
X125677142Y-70357142D01*
X125534285Y-70261904D01*
X125343809Y-70214285D01*
X124962857Y-70214285D01*
X124867619Y-70261904D01*
X124820000Y-70309523D01*
X124772380Y-70404761D01*
X124772380Y-70595238D01*
X124820000Y-70690476D01*
X124867619Y-70738095D01*
X124962857Y-70785714D01*
X125200952Y-70785714D01*
X125296190Y-70738095D01*
X125343809Y-70690476D01*
X125391428Y-70595238D01*
X125391428Y-70404761D01*
X125343809Y-70309523D01*
X125296190Y-70261904D01*
X125200952Y-70214285D01*
X133772380Y-71630357D02*
X133296190Y-71963690D01*
X133772380Y-72201785D02*
X132772380Y-72201785D01*
X132772380Y-71820833D01*
X132820000Y-71725595D01*
X132867619Y-71677976D01*
X132962857Y-71630357D01*
X133105714Y-71630357D01*
X133200952Y-71677976D01*
X133248571Y-71725595D01*
X133296190Y-71820833D01*
X133296190Y-72201785D01*
X133772380Y-70677976D02*
X133772380Y-71249404D01*
X133772380Y-70963690D02*
X132772380Y-70963690D01*
X132915238Y-71058928D01*
X133010476Y-71154166D01*
X133058095Y-71249404D01*
X132772380Y-70058928D02*
X132772380Y-69963690D01*
X132820000Y-69868452D01*
X132867619Y-69820833D01*
X132962857Y-69773214D01*
X133153333Y-69725595D01*
X133391428Y-69725595D01*
X133581904Y-69773214D01*
X133677142Y-69820833D01*
X133724761Y-69868452D01*
X133772380Y-69963690D01*
X133772380Y-70058928D01*
X133724761Y-70154166D01*
X133677142Y-70201785D01*
X133581904Y-70249404D01*
X133391428Y-70297023D01*
X133153333Y-70297023D01*
X132962857Y-70249404D01*
X132867619Y-70201785D01*
X132820000Y-70154166D01*
X132772380Y-70058928D01*
X90857142Y-67772380D02*
X90523809Y-67296190D01*
X90285714Y-67772380D02*
X90285714Y-66772380D01*
X90666666Y-66772380D01*
X90761904Y-66820000D01*
X90809523Y-66867619D01*
X90857142Y-66962857D01*
X90857142Y-67105714D01*
X90809523Y-67200952D01*
X90761904Y-67248571D01*
X90666666Y-67296190D01*
X90285714Y-67296190D01*
X91809523Y-67772380D02*
X91238095Y-67772380D01*
X91523809Y-67772380D02*
X91523809Y-66772380D01*
X91428571Y-66915238D01*
X91333333Y-67010476D01*
X91238095Y-67058095D01*
X92761904Y-67772380D02*
X92190476Y-67772380D01*
X92476190Y-67772380D02*
X92476190Y-66772380D01*
X92380952Y-66915238D01*
X92285714Y-67010476D01*
X92190476Y-67058095D01*
X81869642Y-67772380D02*
X81536309Y-67296190D01*
X81298214Y-67772380D02*
X81298214Y-66772380D01*
X81679166Y-66772380D01*
X81774404Y-66820000D01*
X81822023Y-66867619D01*
X81869642Y-66962857D01*
X81869642Y-67105714D01*
X81822023Y-67200952D01*
X81774404Y-67248571D01*
X81679166Y-67296190D01*
X81298214Y-67296190D01*
X82822023Y-67772380D02*
X82250595Y-67772380D01*
X82536309Y-67772380D02*
X82536309Y-66772380D01*
X82441071Y-66915238D01*
X82345833Y-67010476D01*
X82250595Y-67058095D01*
X83202976Y-66867619D02*
X83250595Y-66820000D01*
X83345833Y-66772380D01*
X83583928Y-66772380D01*
X83679166Y-66820000D01*
X83726785Y-66867619D01*
X83774404Y-66962857D01*
X83774404Y-67058095D01*
X83726785Y-67200952D01*
X83155357Y-67772380D01*
X83774404Y-67772380D01*
X83574095Y-83060380D02*
X84145523Y-83060380D01*
X83859809Y-84060380D02*
X83859809Y-83060380D01*
X84478857Y-84060380D02*
X84478857Y-83060380D01*
X84859809Y-83060380D01*
X84955047Y-83108000D01*
X85002666Y-83155619D01*
X85050285Y-83250857D01*
X85050285Y-83393714D01*
X85002666Y-83488952D01*
X84955047Y-83536571D01*
X84859809Y-83584190D01*
X84478857Y-83584190D01*
X85383619Y-83060380D02*
X86002666Y-83060380D01*
X85669333Y-83441333D01*
X85812190Y-83441333D01*
X85907428Y-83488952D01*
X85955047Y-83536571D01*
X86002666Y-83631809D01*
X86002666Y-83869904D01*
X85955047Y-83965142D01*
X85907428Y-84012761D01*
X85812190Y-84060380D01*
X85526476Y-84060380D01*
X85431238Y-84012761D01*
X85383619Y-83965142D01*
X100416666Y-68222761D02*
X100559523Y-68270380D01*
X100797619Y-68270380D01*
X100892857Y-68222761D01*
X100940476Y-68175142D01*
X100988095Y-68079904D01*
X100988095Y-67984666D01*
X100940476Y-67889428D01*
X100892857Y-67841809D01*
X100797619Y-67794190D01*
X100607142Y-67746571D01*
X100511904Y-67698952D01*
X100464285Y-67651333D01*
X100416666Y-67556095D01*
X100416666Y-67460857D01*
X100464285Y-67365619D01*
X100511904Y-67318000D01*
X100607142Y-67270380D01*
X100845238Y-67270380D01*
X100988095Y-67318000D01*
X101321428Y-67270380D02*
X101559523Y-68270380D01*
X101750000Y-67556095D01*
X101940476Y-68270380D01*
X102178571Y-67270380D01*
X103083333Y-68270380D02*
X102511904Y-68270380D01*
X102797619Y-68270380D02*
X102797619Y-67270380D01*
X102702380Y-67413238D01*
X102607142Y-67508476D01*
X102511904Y-67556095D01*
X106172095Y-96480380D02*
X106172095Y-97289904D01*
X106219714Y-97385142D01*
X106267333Y-97432761D01*
X106362571Y-97480380D01*
X106553047Y-97480380D01*
X106648285Y-97432761D01*
X106695904Y-97385142D01*
X106743523Y-97289904D01*
X106743523Y-96480380D01*
X107743523Y-97480380D02*
X107172095Y-97480380D01*
X107457809Y-97480380D02*
X107457809Y-96480380D01*
X107362571Y-96623238D01*
X107267333Y-96718476D01*
X107172095Y-96766095D01*
X81034095Y-105116380D02*
X81605523Y-105116380D01*
X81319809Y-106116380D02*
X81319809Y-105116380D01*
X81938857Y-106116380D02*
X81938857Y-105116380D01*
X82319809Y-105116380D01*
X82415047Y-105164000D01*
X82462666Y-105211619D01*
X82510285Y-105306857D01*
X82510285Y-105449714D01*
X82462666Y-105544952D01*
X82415047Y-105592571D01*
X82319809Y-105640190D01*
X81938857Y-105640190D01*
X82891238Y-105211619D02*
X82938857Y-105164000D01*
X83034095Y-105116380D01*
X83272190Y-105116380D01*
X83367428Y-105164000D01*
X83415047Y-105211619D01*
X83462666Y-105306857D01*
X83462666Y-105402095D01*
X83415047Y-105544952D01*
X82843619Y-106116380D01*
X83462666Y-106116380D01*
X89162095Y-83060380D02*
X89733523Y-83060380D01*
X89447809Y-84060380D02*
X89447809Y-83060380D01*
X90066857Y-84060380D02*
X90066857Y-83060380D01*
X90447809Y-83060380D01*
X90543047Y-83108000D01*
X90590666Y-83155619D01*
X90638285Y-83250857D01*
X90638285Y-83393714D01*
X90590666Y-83488952D01*
X90543047Y-83536571D01*
X90447809Y-83584190D01*
X90066857Y-83584190D01*
X91495428Y-83393714D02*
X91495428Y-84060380D01*
X91257333Y-83012761D02*
X91019238Y-83727047D01*
X91638285Y-83727047D01*
X132261904Y-94454380D02*
X132833333Y-94454380D01*
X132547619Y-95454380D02*
X132547619Y-94454380D01*
X133166666Y-95454380D02*
X133166666Y-94454380D01*
X133547619Y-94454380D01*
X133642857Y-94502000D01*
X133690476Y-94549619D01*
X133738095Y-94644857D01*
X133738095Y-94787714D01*
X133690476Y-94882952D01*
X133642857Y-94930571D01*
X133547619Y-94978190D01*
X133166666Y-94978190D01*
X134690476Y-95454380D02*
X134119047Y-95454380D01*
X134404761Y-95454380D02*
X134404761Y-94454380D01*
X134309523Y-94597238D01*
X134214285Y-94692476D01*
X134119047Y-94740095D01*
X135309523Y-94454380D02*
X135404761Y-94454380D01*
X135500000Y-94502000D01*
X135547619Y-94549619D01*
X135595238Y-94644857D01*
X135642857Y-94835333D01*
X135642857Y-95073428D01*
X135595238Y-95263904D01*
X135547619Y-95359142D01*
X135500000Y-95406761D01*
X135404761Y-95454380D01*
X135309523Y-95454380D01*
X135214285Y-95406761D01*
X135166666Y-95359142D01*
X135119047Y-95263904D01*
X135071428Y-95073428D01*
X135071428Y-94835333D01*
X135119047Y-94644857D01*
X135166666Y-94549619D01*
X135214285Y-94502000D01*
X135309523Y-94454380D01*
M02*
