M48
; DRILL file {KiCad (5.1.5)-3} date 05/16/20 12:13:33
; FORMAT={-:-/ absolute / inch / decimal}
; #@! TF.CreationDate,2020-05-16T12:13:33+02:00
; #@! TF.GenerationSoftware,Kicad,Pcbnew,(5.1.5)-3
; #@! TF.FileFunction,Plated,1,4,PTH
FMAT,2
INCH
T1C0.0276
T2C0.0315
T3C0.0394
T4C0.0400
T5C0.0433
T6C0.0787
%
G90
G05
T1
X4.8819Y-3.7598
X3.74Y-3.4
X3.71Y-4.14
X4.01Y-4.14
X3.51Y-3.63
X3.51Y-3.93
X3.04Y-3.63
X3.34Y-3.63
X5.0984Y-3.76
X5.0984Y-4.06
X4.8228Y-3.6024
X5.1228Y-3.6024
X4.8819Y-4.0598
X4.04Y-3.4
T2
X3.4843Y-4.1929
X3.563Y-4.1929
X4.2126Y-3.4646
X4.4094Y-3.4646
X4.0551Y-3.7008
X4.0551Y-3.8008
X4.0551Y-3.9008
X4.0551Y-4.0008
X4.3551Y-3.7008
X4.3551Y-3.8008
X4.3551Y-3.9008
X4.3551Y-4.0008
X3.7613Y-3.69
X3.84Y-3.69
X4.5669Y-3.5433
X4.6457Y-3.5433
X4.6063Y-3.7992
X4.6063Y-3.9961
X3.69Y-3.94
X3.8869Y-3.94
T3
X2.84Y-2.5
X2.84Y-2.6
X2.7756Y-3.9567
X2.8756Y-3.9567
X2.9756Y-3.9567
T4
X3.4339Y-2.3864
X3.5339Y-2.3864
X3.6339Y-2.3864
X3.7339Y-2.3864
X3.7939Y-4.2864
X3.8339Y-2.3864
X3.8939Y-4.2864
X3.9339Y-2.3864
X3.9939Y-4.2864
X4.0339Y-2.3864
X4.0939Y-4.2864
X4.1339Y-2.3864
X4.1939Y-4.2864
X4.2339Y-2.3864
X4.2939Y-4.2864
X4.3339Y-2.3864
X4.3939Y-4.2864
X4.4939Y-2.3864
X4.4939Y-4.2864
X4.5939Y-2.3864
X4.6939Y-2.3864
X4.6939Y-4.2864
X4.7939Y-2.3864
X4.7939Y-4.2864
X4.8939Y-2.3864
X4.8939Y-4.2864
X4.9939Y-2.3864
X4.9939Y-4.2864
X5.0939Y-2.3864
X5.0939Y-4.2864
X5.1939Y-2.3864
X5.1939Y-4.2864
X5.1989Y-3.1864
X5.1989Y-3.2864
X5.1989Y-3.3864
X5.2989Y-3.1864
X5.2989Y-3.2864
X5.2989Y-3.3864
T5
X3.878Y-2.5787
X3.878Y-2.7559
X4.1339Y-2.5787
X4.1339Y-2.7559
T6
X3.34Y-3.39
X4.6457Y-2.5591
X2.84Y-2.78
X2.8346Y-2.9528
X5.0394Y-2.5591
X3.56Y-3.39
X5.2756Y-3.8386
X4.8425Y-2.5591
X3.248Y-4.03
X2.8346Y-3.3858
T0
M30
