%TF.GenerationSoftware,KiCad,Pcbnew,(5.1.5)-3*%
%TF.CreationDate,2020-05-16T12:13:26+02:00*%
%TF.ProjectId,30_PCB,33305f50-4342-42e6-9b69-6361645f7063,V1.1*%
%TF.SameCoordinates,Original*%
%TF.FileFunction,Paste,Top*%
%TF.FilePolarity,Positive*%
%FSLAX46Y46*%
G04 Gerber Fmt 4.6, Leading zero omitted, Abs format (unit mm)*
G04 Created by KiCad (PCBNEW (5.1.5)-3) date 2020-05-16 12:13:26*
%MOMM*%
%LPD*%
G04 APERTURE LIST*
%ADD10C,0.100000*%
G04 APERTURE END LIST*
D10*
G36*
X92149504Y-73276204D02*
G01*
X92173773Y-73279804D01*
X92197571Y-73285765D01*
X92220671Y-73294030D01*
X92242849Y-73304520D01*
X92263893Y-73317133D01*
X92283598Y-73331747D01*
X92301777Y-73348223D01*
X92318253Y-73366402D01*
X92332867Y-73386107D01*
X92345480Y-73407151D01*
X92355970Y-73429329D01*
X92364235Y-73452429D01*
X92370196Y-73476227D01*
X92373796Y-73500496D01*
X92375000Y-73525000D01*
X92375000Y-74450000D01*
X92373796Y-74474504D01*
X92370196Y-74498773D01*
X92364235Y-74522571D01*
X92355970Y-74545671D01*
X92345480Y-74567849D01*
X92332867Y-74588893D01*
X92318253Y-74608598D01*
X92301777Y-74626777D01*
X92283598Y-74643253D01*
X92263893Y-74657867D01*
X92242849Y-74670480D01*
X92220671Y-74680970D01*
X92197571Y-74689235D01*
X92173773Y-74695196D01*
X92149504Y-74698796D01*
X92125000Y-74700000D01*
X90875000Y-74700000D01*
X90850496Y-74698796D01*
X90826227Y-74695196D01*
X90802429Y-74689235D01*
X90779329Y-74680970D01*
X90757151Y-74670480D01*
X90736107Y-74657867D01*
X90716402Y-74643253D01*
X90698223Y-74626777D01*
X90681747Y-74608598D01*
X90667133Y-74588893D01*
X90654520Y-74567849D01*
X90644030Y-74545671D01*
X90635765Y-74522571D01*
X90629804Y-74498773D01*
X90626204Y-74474504D01*
X90625000Y-74450000D01*
X90625000Y-73525000D01*
X90626204Y-73500496D01*
X90629804Y-73476227D01*
X90635765Y-73452429D01*
X90644030Y-73429329D01*
X90654520Y-73407151D01*
X90667133Y-73386107D01*
X90681747Y-73366402D01*
X90698223Y-73348223D01*
X90716402Y-73331747D01*
X90736107Y-73317133D01*
X90757151Y-73304520D01*
X90779329Y-73294030D01*
X90802429Y-73285765D01*
X90826227Y-73279804D01*
X90850496Y-73276204D01*
X90875000Y-73275000D01*
X92125000Y-73275000D01*
X92149504Y-73276204D01*
G37*
G36*
X92149504Y-70301204D02*
G01*
X92173773Y-70304804D01*
X92197571Y-70310765D01*
X92220671Y-70319030D01*
X92242849Y-70329520D01*
X92263893Y-70342133D01*
X92283598Y-70356747D01*
X92301777Y-70373223D01*
X92318253Y-70391402D01*
X92332867Y-70411107D01*
X92345480Y-70432151D01*
X92355970Y-70454329D01*
X92364235Y-70477429D01*
X92370196Y-70501227D01*
X92373796Y-70525496D01*
X92375000Y-70550000D01*
X92375000Y-71475000D01*
X92373796Y-71499504D01*
X92370196Y-71523773D01*
X92364235Y-71547571D01*
X92355970Y-71570671D01*
X92345480Y-71592849D01*
X92332867Y-71613893D01*
X92318253Y-71633598D01*
X92301777Y-71651777D01*
X92283598Y-71668253D01*
X92263893Y-71682867D01*
X92242849Y-71695480D01*
X92220671Y-71705970D01*
X92197571Y-71714235D01*
X92173773Y-71720196D01*
X92149504Y-71723796D01*
X92125000Y-71725000D01*
X90875000Y-71725000D01*
X90850496Y-71723796D01*
X90826227Y-71720196D01*
X90802429Y-71714235D01*
X90779329Y-71705970D01*
X90757151Y-71695480D01*
X90736107Y-71682867D01*
X90716402Y-71668253D01*
X90698223Y-71651777D01*
X90681747Y-71633598D01*
X90667133Y-71613893D01*
X90654520Y-71592849D01*
X90644030Y-71570671D01*
X90635765Y-71547571D01*
X90629804Y-71523773D01*
X90626204Y-71499504D01*
X90625000Y-71475000D01*
X90625000Y-70550000D01*
X90626204Y-70525496D01*
X90629804Y-70501227D01*
X90635765Y-70477429D01*
X90644030Y-70454329D01*
X90654520Y-70432151D01*
X90667133Y-70411107D01*
X90681747Y-70391402D01*
X90698223Y-70373223D01*
X90716402Y-70356747D01*
X90736107Y-70342133D01*
X90757151Y-70329520D01*
X90779329Y-70319030D01*
X90802429Y-70310765D01*
X90826227Y-70304804D01*
X90850496Y-70301204D01*
X90875000Y-70300000D01*
X92125000Y-70300000D01*
X92149504Y-70301204D01*
G37*
G36*
X111649504Y-74776204D02*
G01*
X111673773Y-74779804D01*
X111697571Y-74785765D01*
X111720671Y-74794030D01*
X111742849Y-74804520D01*
X111763893Y-74817133D01*
X111783598Y-74831747D01*
X111801777Y-74848223D01*
X111818253Y-74866402D01*
X111832867Y-74886107D01*
X111845480Y-74907151D01*
X111855970Y-74929329D01*
X111864235Y-74952429D01*
X111870196Y-74976227D01*
X111873796Y-75000496D01*
X111875000Y-75025000D01*
X111875000Y-75950000D01*
X111873796Y-75974504D01*
X111870196Y-75998773D01*
X111864235Y-76022571D01*
X111855970Y-76045671D01*
X111845480Y-76067849D01*
X111832867Y-76088893D01*
X111818253Y-76108598D01*
X111801777Y-76126777D01*
X111783598Y-76143253D01*
X111763893Y-76157867D01*
X111742849Y-76170480D01*
X111720671Y-76180970D01*
X111697571Y-76189235D01*
X111673773Y-76195196D01*
X111649504Y-76198796D01*
X111625000Y-76200000D01*
X110375000Y-76200000D01*
X110350496Y-76198796D01*
X110326227Y-76195196D01*
X110302429Y-76189235D01*
X110279329Y-76180970D01*
X110257151Y-76170480D01*
X110236107Y-76157867D01*
X110216402Y-76143253D01*
X110198223Y-76126777D01*
X110181747Y-76108598D01*
X110167133Y-76088893D01*
X110154520Y-76067849D01*
X110144030Y-76045671D01*
X110135765Y-76022571D01*
X110129804Y-75998773D01*
X110126204Y-75974504D01*
X110125000Y-75950000D01*
X110125000Y-75025000D01*
X110126204Y-75000496D01*
X110129804Y-74976227D01*
X110135765Y-74952429D01*
X110144030Y-74929329D01*
X110154520Y-74907151D01*
X110167133Y-74886107D01*
X110181747Y-74866402D01*
X110198223Y-74848223D01*
X110216402Y-74831747D01*
X110236107Y-74817133D01*
X110257151Y-74804520D01*
X110279329Y-74794030D01*
X110302429Y-74785765D01*
X110326227Y-74779804D01*
X110350496Y-74776204D01*
X110375000Y-74775000D01*
X111625000Y-74775000D01*
X111649504Y-74776204D01*
G37*
G36*
X111649504Y-71801204D02*
G01*
X111673773Y-71804804D01*
X111697571Y-71810765D01*
X111720671Y-71819030D01*
X111742849Y-71829520D01*
X111763893Y-71842133D01*
X111783598Y-71856747D01*
X111801777Y-71873223D01*
X111818253Y-71891402D01*
X111832867Y-71911107D01*
X111845480Y-71932151D01*
X111855970Y-71954329D01*
X111864235Y-71977429D01*
X111870196Y-72001227D01*
X111873796Y-72025496D01*
X111875000Y-72050000D01*
X111875000Y-72975000D01*
X111873796Y-72999504D01*
X111870196Y-73023773D01*
X111864235Y-73047571D01*
X111855970Y-73070671D01*
X111845480Y-73092849D01*
X111832867Y-73113893D01*
X111818253Y-73133598D01*
X111801777Y-73151777D01*
X111783598Y-73168253D01*
X111763893Y-73182867D01*
X111742849Y-73195480D01*
X111720671Y-73205970D01*
X111697571Y-73214235D01*
X111673773Y-73220196D01*
X111649504Y-73223796D01*
X111625000Y-73225000D01*
X110375000Y-73225000D01*
X110350496Y-73223796D01*
X110326227Y-73220196D01*
X110302429Y-73214235D01*
X110279329Y-73205970D01*
X110257151Y-73195480D01*
X110236107Y-73182867D01*
X110216402Y-73168253D01*
X110198223Y-73151777D01*
X110181747Y-73133598D01*
X110167133Y-73113893D01*
X110154520Y-73092849D01*
X110144030Y-73070671D01*
X110135765Y-73047571D01*
X110129804Y-73023773D01*
X110126204Y-72999504D01*
X110125000Y-72975000D01*
X110125000Y-72050000D01*
X110126204Y-72025496D01*
X110129804Y-72001227D01*
X110135765Y-71977429D01*
X110144030Y-71954329D01*
X110154520Y-71932151D01*
X110167133Y-71911107D01*
X110181747Y-71891402D01*
X110198223Y-71873223D01*
X110216402Y-71856747D01*
X110236107Y-71842133D01*
X110257151Y-71829520D01*
X110279329Y-71819030D01*
X110302429Y-71810765D01*
X110326227Y-71804804D01*
X110350496Y-71801204D01*
X110375000Y-71800000D01*
X111625000Y-71800000D01*
X111649504Y-71801204D01*
G37*
G36*
X120149504Y-71801204D02*
G01*
X120173773Y-71804804D01*
X120197571Y-71810765D01*
X120220671Y-71819030D01*
X120242849Y-71829520D01*
X120263893Y-71842133D01*
X120283598Y-71856747D01*
X120301777Y-71873223D01*
X120318253Y-71891402D01*
X120332867Y-71911107D01*
X120345480Y-71932151D01*
X120355970Y-71954329D01*
X120364235Y-71977429D01*
X120370196Y-72001227D01*
X120373796Y-72025496D01*
X120375000Y-72050000D01*
X120375000Y-72975000D01*
X120373796Y-72999504D01*
X120370196Y-73023773D01*
X120364235Y-73047571D01*
X120355970Y-73070671D01*
X120345480Y-73092849D01*
X120332867Y-73113893D01*
X120318253Y-73133598D01*
X120301777Y-73151777D01*
X120283598Y-73168253D01*
X120263893Y-73182867D01*
X120242849Y-73195480D01*
X120220671Y-73205970D01*
X120197571Y-73214235D01*
X120173773Y-73220196D01*
X120149504Y-73223796D01*
X120125000Y-73225000D01*
X118875000Y-73225000D01*
X118850496Y-73223796D01*
X118826227Y-73220196D01*
X118802429Y-73214235D01*
X118779329Y-73205970D01*
X118757151Y-73195480D01*
X118736107Y-73182867D01*
X118716402Y-73168253D01*
X118698223Y-73151777D01*
X118681747Y-73133598D01*
X118667133Y-73113893D01*
X118654520Y-73092849D01*
X118644030Y-73070671D01*
X118635765Y-73047571D01*
X118629804Y-73023773D01*
X118626204Y-72999504D01*
X118625000Y-72975000D01*
X118625000Y-72050000D01*
X118626204Y-72025496D01*
X118629804Y-72001227D01*
X118635765Y-71977429D01*
X118644030Y-71954329D01*
X118654520Y-71932151D01*
X118667133Y-71911107D01*
X118681747Y-71891402D01*
X118698223Y-71873223D01*
X118716402Y-71856747D01*
X118736107Y-71842133D01*
X118757151Y-71829520D01*
X118779329Y-71819030D01*
X118802429Y-71810765D01*
X118826227Y-71804804D01*
X118850496Y-71801204D01*
X118875000Y-71800000D01*
X120125000Y-71800000D01*
X120149504Y-71801204D01*
G37*
G36*
X120149504Y-74776204D02*
G01*
X120173773Y-74779804D01*
X120197571Y-74785765D01*
X120220671Y-74794030D01*
X120242849Y-74804520D01*
X120263893Y-74817133D01*
X120283598Y-74831747D01*
X120301777Y-74848223D01*
X120318253Y-74866402D01*
X120332867Y-74886107D01*
X120345480Y-74907151D01*
X120355970Y-74929329D01*
X120364235Y-74952429D01*
X120370196Y-74976227D01*
X120373796Y-75000496D01*
X120375000Y-75025000D01*
X120375000Y-75950000D01*
X120373796Y-75974504D01*
X120370196Y-75998773D01*
X120364235Y-76022571D01*
X120355970Y-76045671D01*
X120345480Y-76067849D01*
X120332867Y-76088893D01*
X120318253Y-76108598D01*
X120301777Y-76126777D01*
X120283598Y-76143253D01*
X120263893Y-76157867D01*
X120242849Y-76170480D01*
X120220671Y-76180970D01*
X120197571Y-76189235D01*
X120173773Y-76195196D01*
X120149504Y-76198796D01*
X120125000Y-76200000D01*
X118875000Y-76200000D01*
X118850496Y-76198796D01*
X118826227Y-76195196D01*
X118802429Y-76189235D01*
X118779329Y-76180970D01*
X118757151Y-76170480D01*
X118736107Y-76157867D01*
X118716402Y-76143253D01*
X118698223Y-76126777D01*
X118681747Y-76108598D01*
X118667133Y-76088893D01*
X118654520Y-76067849D01*
X118644030Y-76045671D01*
X118635765Y-76022571D01*
X118629804Y-75998773D01*
X118626204Y-75974504D01*
X118625000Y-75950000D01*
X118625000Y-75025000D01*
X118626204Y-75000496D01*
X118629804Y-74976227D01*
X118635765Y-74952429D01*
X118644030Y-74929329D01*
X118654520Y-74907151D01*
X118667133Y-74886107D01*
X118681747Y-74866402D01*
X118698223Y-74848223D01*
X118716402Y-74831747D01*
X118736107Y-74817133D01*
X118757151Y-74804520D01*
X118779329Y-74794030D01*
X118802429Y-74785765D01*
X118826227Y-74779804D01*
X118850496Y-74776204D01*
X118875000Y-74775000D01*
X120125000Y-74775000D01*
X120149504Y-74776204D01*
G37*
G36*
X128149504Y-74788704D02*
G01*
X128173773Y-74792304D01*
X128197571Y-74798265D01*
X128220671Y-74806530D01*
X128242849Y-74817020D01*
X128263893Y-74829633D01*
X128283598Y-74844247D01*
X128301777Y-74860723D01*
X128318253Y-74878902D01*
X128332867Y-74898607D01*
X128345480Y-74919651D01*
X128355970Y-74941829D01*
X128364235Y-74964929D01*
X128370196Y-74988727D01*
X128373796Y-75012996D01*
X128375000Y-75037500D01*
X128375000Y-75962500D01*
X128373796Y-75987004D01*
X128370196Y-76011273D01*
X128364235Y-76035071D01*
X128355970Y-76058171D01*
X128345480Y-76080349D01*
X128332867Y-76101393D01*
X128318253Y-76121098D01*
X128301777Y-76139277D01*
X128283598Y-76155753D01*
X128263893Y-76170367D01*
X128242849Y-76182980D01*
X128220671Y-76193470D01*
X128197571Y-76201735D01*
X128173773Y-76207696D01*
X128149504Y-76211296D01*
X128125000Y-76212500D01*
X126875000Y-76212500D01*
X126850496Y-76211296D01*
X126826227Y-76207696D01*
X126802429Y-76201735D01*
X126779329Y-76193470D01*
X126757151Y-76182980D01*
X126736107Y-76170367D01*
X126716402Y-76155753D01*
X126698223Y-76139277D01*
X126681747Y-76121098D01*
X126667133Y-76101393D01*
X126654520Y-76080349D01*
X126644030Y-76058171D01*
X126635765Y-76035071D01*
X126629804Y-76011273D01*
X126626204Y-75987004D01*
X126625000Y-75962500D01*
X126625000Y-75037500D01*
X126626204Y-75012996D01*
X126629804Y-74988727D01*
X126635765Y-74964929D01*
X126644030Y-74941829D01*
X126654520Y-74919651D01*
X126667133Y-74898607D01*
X126681747Y-74878902D01*
X126698223Y-74860723D01*
X126716402Y-74844247D01*
X126736107Y-74829633D01*
X126757151Y-74817020D01*
X126779329Y-74806530D01*
X126802429Y-74798265D01*
X126826227Y-74792304D01*
X126850496Y-74788704D01*
X126875000Y-74787500D01*
X128125000Y-74787500D01*
X128149504Y-74788704D01*
G37*
G36*
X128149504Y-71813704D02*
G01*
X128173773Y-71817304D01*
X128197571Y-71823265D01*
X128220671Y-71831530D01*
X128242849Y-71842020D01*
X128263893Y-71854633D01*
X128283598Y-71869247D01*
X128301777Y-71885723D01*
X128318253Y-71903902D01*
X128332867Y-71923607D01*
X128345480Y-71944651D01*
X128355970Y-71966829D01*
X128364235Y-71989929D01*
X128370196Y-72013727D01*
X128373796Y-72037996D01*
X128375000Y-72062500D01*
X128375000Y-72987500D01*
X128373796Y-73012004D01*
X128370196Y-73036273D01*
X128364235Y-73060071D01*
X128355970Y-73083171D01*
X128345480Y-73105349D01*
X128332867Y-73126393D01*
X128318253Y-73146098D01*
X128301777Y-73164277D01*
X128283598Y-73180753D01*
X128263893Y-73195367D01*
X128242849Y-73207980D01*
X128220671Y-73218470D01*
X128197571Y-73226735D01*
X128173773Y-73232696D01*
X128149504Y-73236296D01*
X128125000Y-73237500D01*
X126875000Y-73237500D01*
X126850496Y-73236296D01*
X126826227Y-73232696D01*
X126802429Y-73226735D01*
X126779329Y-73218470D01*
X126757151Y-73207980D01*
X126736107Y-73195367D01*
X126716402Y-73180753D01*
X126698223Y-73164277D01*
X126681747Y-73146098D01*
X126667133Y-73126393D01*
X126654520Y-73105349D01*
X126644030Y-73083171D01*
X126635765Y-73060071D01*
X126629804Y-73036273D01*
X126626204Y-73012004D01*
X126625000Y-72987500D01*
X126625000Y-72062500D01*
X126626204Y-72037996D01*
X126629804Y-72013727D01*
X126635765Y-71989929D01*
X126644030Y-71966829D01*
X126654520Y-71944651D01*
X126667133Y-71923607D01*
X126681747Y-71903902D01*
X126698223Y-71885723D01*
X126716402Y-71869247D01*
X126736107Y-71854633D01*
X126757151Y-71842020D01*
X126779329Y-71831530D01*
X126802429Y-71823265D01*
X126826227Y-71817304D01*
X126850496Y-71813704D01*
X126875000Y-71812500D01*
X128125000Y-71812500D01*
X128149504Y-71813704D01*
G37*
G36*
X81649504Y-70313704D02*
G01*
X81673773Y-70317304D01*
X81697571Y-70323265D01*
X81720671Y-70331530D01*
X81742849Y-70342020D01*
X81763893Y-70354633D01*
X81783598Y-70369247D01*
X81801777Y-70385723D01*
X81818253Y-70403902D01*
X81832867Y-70423607D01*
X81845480Y-70444651D01*
X81855970Y-70466829D01*
X81864235Y-70489929D01*
X81870196Y-70513727D01*
X81873796Y-70537996D01*
X81875000Y-70562500D01*
X81875000Y-71487500D01*
X81873796Y-71512004D01*
X81870196Y-71536273D01*
X81864235Y-71560071D01*
X81855970Y-71583171D01*
X81845480Y-71605349D01*
X81832867Y-71626393D01*
X81818253Y-71646098D01*
X81801777Y-71664277D01*
X81783598Y-71680753D01*
X81763893Y-71695367D01*
X81742849Y-71707980D01*
X81720671Y-71718470D01*
X81697571Y-71726735D01*
X81673773Y-71732696D01*
X81649504Y-71736296D01*
X81625000Y-71737500D01*
X80375000Y-71737500D01*
X80350496Y-71736296D01*
X80326227Y-71732696D01*
X80302429Y-71726735D01*
X80279329Y-71718470D01*
X80257151Y-71707980D01*
X80236107Y-71695367D01*
X80216402Y-71680753D01*
X80198223Y-71664277D01*
X80181747Y-71646098D01*
X80167133Y-71626393D01*
X80154520Y-71605349D01*
X80144030Y-71583171D01*
X80135765Y-71560071D01*
X80129804Y-71536273D01*
X80126204Y-71512004D01*
X80125000Y-71487500D01*
X80125000Y-70562500D01*
X80126204Y-70537996D01*
X80129804Y-70513727D01*
X80135765Y-70489929D01*
X80144030Y-70466829D01*
X80154520Y-70444651D01*
X80167133Y-70423607D01*
X80181747Y-70403902D01*
X80198223Y-70385723D01*
X80216402Y-70369247D01*
X80236107Y-70354633D01*
X80257151Y-70342020D01*
X80279329Y-70331530D01*
X80302429Y-70323265D01*
X80326227Y-70317304D01*
X80350496Y-70313704D01*
X80375000Y-70312500D01*
X81625000Y-70312500D01*
X81649504Y-70313704D01*
G37*
G36*
X81649504Y-73288704D02*
G01*
X81673773Y-73292304D01*
X81697571Y-73298265D01*
X81720671Y-73306530D01*
X81742849Y-73317020D01*
X81763893Y-73329633D01*
X81783598Y-73344247D01*
X81801777Y-73360723D01*
X81818253Y-73378902D01*
X81832867Y-73398607D01*
X81845480Y-73419651D01*
X81855970Y-73441829D01*
X81864235Y-73464929D01*
X81870196Y-73488727D01*
X81873796Y-73512996D01*
X81875000Y-73537500D01*
X81875000Y-74462500D01*
X81873796Y-74487004D01*
X81870196Y-74511273D01*
X81864235Y-74535071D01*
X81855970Y-74558171D01*
X81845480Y-74580349D01*
X81832867Y-74601393D01*
X81818253Y-74621098D01*
X81801777Y-74639277D01*
X81783598Y-74655753D01*
X81763893Y-74670367D01*
X81742849Y-74682980D01*
X81720671Y-74693470D01*
X81697571Y-74701735D01*
X81673773Y-74707696D01*
X81649504Y-74711296D01*
X81625000Y-74712500D01*
X80375000Y-74712500D01*
X80350496Y-74711296D01*
X80326227Y-74707696D01*
X80302429Y-74701735D01*
X80279329Y-74693470D01*
X80257151Y-74682980D01*
X80236107Y-74670367D01*
X80216402Y-74655753D01*
X80198223Y-74639277D01*
X80181747Y-74621098D01*
X80167133Y-74601393D01*
X80154520Y-74580349D01*
X80144030Y-74558171D01*
X80135765Y-74535071D01*
X80129804Y-74511273D01*
X80126204Y-74487004D01*
X80125000Y-74462500D01*
X80125000Y-73537500D01*
X80126204Y-73512996D01*
X80129804Y-73488727D01*
X80135765Y-73464929D01*
X80144030Y-73441829D01*
X80154520Y-73419651D01*
X80167133Y-73398607D01*
X80181747Y-73378902D01*
X80198223Y-73360723D01*
X80216402Y-73344247D01*
X80236107Y-73329633D01*
X80257151Y-73317020D01*
X80279329Y-73306530D01*
X80302429Y-73298265D01*
X80326227Y-73292304D01*
X80350496Y-73288704D01*
X80375000Y-73287500D01*
X81625000Y-73287500D01*
X81649504Y-73288704D01*
G37*
G36*
X116149504Y-71763704D02*
G01*
X116173773Y-71767304D01*
X116197571Y-71773265D01*
X116220671Y-71781530D01*
X116242849Y-71792020D01*
X116263893Y-71804633D01*
X116283598Y-71819247D01*
X116301777Y-71835723D01*
X116318253Y-71853902D01*
X116332867Y-71873607D01*
X116345480Y-71894651D01*
X116355970Y-71916829D01*
X116364235Y-71939929D01*
X116370196Y-71963727D01*
X116373796Y-71987996D01*
X116375000Y-72012500D01*
X116375000Y-72937500D01*
X116373796Y-72962004D01*
X116370196Y-72986273D01*
X116364235Y-73010071D01*
X116355970Y-73033171D01*
X116345480Y-73055349D01*
X116332867Y-73076393D01*
X116318253Y-73096098D01*
X116301777Y-73114277D01*
X116283598Y-73130753D01*
X116263893Y-73145367D01*
X116242849Y-73157980D01*
X116220671Y-73168470D01*
X116197571Y-73176735D01*
X116173773Y-73182696D01*
X116149504Y-73186296D01*
X116125000Y-73187500D01*
X114875000Y-73187500D01*
X114850496Y-73186296D01*
X114826227Y-73182696D01*
X114802429Y-73176735D01*
X114779329Y-73168470D01*
X114757151Y-73157980D01*
X114736107Y-73145367D01*
X114716402Y-73130753D01*
X114698223Y-73114277D01*
X114681747Y-73096098D01*
X114667133Y-73076393D01*
X114654520Y-73055349D01*
X114644030Y-73033171D01*
X114635765Y-73010071D01*
X114629804Y-72986273D01*
X114626204Y-72962004D01*
X114625000Y-72937500D01*
X114625000Y-72012500D01*
X114626204Y-71987996D01*
X114629804Y-71963727D01*
X114635765Y-71939929D01*
X114644030Y-71916829D01*
X114654520Y-71894651D01*
X114667133Y-71873607D01*
X114681747Y-71853902D01*
X114698223Y-71835723D01*
X114716402Y-71819247D01*
X114736107Y-71804633D01*
X114757151Y-71792020D01*
X114779329Y-71781530D01*
X114802429Y-71773265D01*
X114826227Y-71767304D01*
X114850496Y-71763704D01*
X114875000Y-71762500D01*
X116125000Y-71762500D01*
X116149504Y-71763704D01*
G37*
G36*
X116149504Y-68788704D02*
G01*
X116173773Y-68792304D01*
X116197571Y-68798265D01*
X116220671Y-68806530D01*
X116242849Y-68817020D01*
X116263893Y-68829633D01*
X116283598Y-68844247D01*
X116301777Y-68860723D01*
X116318253Y-68878902D01*
X116332867Y-68898607D01*
X116345480Y-68919651D01*
X116355970Y-68941829D01*
X116364235Y-68964929D01*
X116370196Y-68988727D01*
X116373796Y-69012996D01*
X116375000Y-69037500D01*
X116375000Y-69962500D01*
X116373796Y-69987004D01*
X116370196Y-70011273D01*
X116364235Y-70035071D01*
X116355970Y-70058171D01*
X116345480Y-70080349D01*
X116332867Y-70101393D01*
X116318253Y-70121098D01*
X116301777Y-70139277D01*
X116283598Y-70155753D01*
X116263893Y-70170367D01*
X116242849Y-70182980D01*
X116220671Y-70193470D01*
X116197571Y-70201735D01*
X116173773Y-70207696D01*
X116149504Y-70211296D01*
X116125000Y-70212500D01*
X114875000Y-70212500D01*
X114850496Y-70211296D01*
X114826227Y-70207696D01*
X114802429Y-70201735D01*
X114779329Y-70193470D01*
X114757151Y-70182980D01*
X114736107Y-70170367D01*
X114716402Y-70155753D01*
X114698223Y-70139277D01*
X114681747Y-70121098D01*
X114667133Y-70101393D01*
X114654520Y-70080349D01*
X114644030Y-70058171D01*
X114635765Y-70035071D01*
X114629804Y-70011273D01*
X114626204Y-69987004D01*
X114625000Y-69962500D01*
X114625000Y-69037500D01*
X114626204Y-69012996D01*
X114629804Y-68988727D01*
X114635765Y-68964929D01*
X114644030Y-68941829D01*
X114654520Y-68919651D01*
X114667133Y-68898607D01*
X114681747Y-68878902D01*
X114698223Y-68860723D01*
X114716402Y-68844247D01*
X114736107Y-68829633D01*
X114757151Y-68817020D01*
X114779329Y-68806530D01*
X114802429Y-68798265D01*
X114826227Y-68792304D01*
X114850496Y-68788704D01*
X114875000Y-68787500D01*
X116125000Y-68787500D01*
X116149504Y-68788704D01*
G37*
G36*
X124149504Y-68801204D02*
G01*
X124173773Y-68804804D01*
X124197571Y-68810765D01*
X124220671Y-68819030D01*
X124242849Y-68829520D01*
X124263893Y-68842133D01*
X124283598Y-68856747D01*
X124301777Y-68873223D01*
X124318253Y-68891402D01*
X124332867Y-68911107D01*
X124345480Y-68932151D01*
X124355970Y-68954329D01*
X124364235Y-68977429D01*
X124370196Y-69001227D01*
X124373796Y-69025496D01*
X124375000Y-69050000D01*
X124375000Y-69975000D01*
X124373796Y-69999504D01*
X124370196Y-70023773D01*
X124364235Y-70047571D01*
X124355970Y-70070671D01*
X124345480Y-70092849D01*
X124332867Y-70113893D01*
X124318253Y-70133598D01*
X124301777Y-70151777D01*
X124283598Y-70168253D01*
X124263893Y-70182867D01*
X124242849Y-70195480D01*
X124220671Y-70205970D01*
X124197571Y-70214235D01*
X124173773Y-70220196D01*
X124149504Y-70223796D01*
X124125000Y-70225000D01*
X122875000Y-70225000D01*
X122850496Y-70223796D01*
X122826227Y-70220196D01*
X122802429Y-70214235D01*
X122779329Y-70205970D01*
X122757151Y-70195480D01*
X122736107Y-70182867D01*
X122716402Y-70168253D01*
X122698223Y-70151777D01*
X122681747Y-70133598D01*
X122667133Y-70113893D01*
X122654520Y-70092849D01*
X122644030Y-70070671D01*
X122635765Y-70047571D01*
X122629804Y-70023773D01*
X122626204Y-69999504D01*
X122625000Y-69975000D01*
X122625000Y-69050000D01*
X122626204Y-69025496D01*
X122629804Y-69001227D01*
X122635765Y-68977429D01*
X122644030Y-68954329D01*
X122654520Y-68932151D01*
X122667133Y-68911107D01*
X122681747Y-68891402D01*
X122698223Y-68873223D01*
X122716402Y-68856747D01*
X122736107Y-68842133D01*
X122757151Y-68829520D01*
X122779329Y-68819030D01*
X122802429Y-68810765D01*
X122826227Y-68804804D01*
X122850496Y-68801204D01*
X122875000Y-68800000D01*
X124125000Y-68800000D01*
X124149504Y-68801204D01*
G37*
G36*
X124149504Y-71776204D02*
G01*
X124173773Y-71779804D01*
X124197571Y-71785765D01*
X124220671Y-71794030D01*
X124242849Y-71804520D01*
X124263893Y-71817133D01*
X124283598Y-71831747D01*
X124301777Y-71848223D01*
X124318253Y-71866402D01*
X124332867Y-71886107D01*
X124345480Y-71907151D01*
X124355970Y-71929329D01*
X124364235Y-71952429D01*
X124370196Y-71976227D01*
X124373796Y-72000496D01*
X124375000Y-72025000D01*
X124375000Y-72950000D01*
X124373796Y-72974504D01*
X124370196Y-72998773D01*
X124364235Y-73022571D01*
X124355970Y-73045671D01*
X124345480Y-73067849D01*
X124332867Y-73088893D01*
X124318253Y-73108598D01*
X124301777Y-73126777D01*
X124283598Y-73143253D01*
X124263893Y-73157867D01*
X124242849Y-73170480D01*
X124220671Y-73180970D01*
X124197571Y-73189235D01*
X124173773Y-73195196D01*
X124149504Y-73198796D01*
X124125000Y-73200000D01*
X122875000Y-73200000D01*
X122850496Y-73198796D01*
X122826227Y-73195196D01*
X122802429Y-73189235D01*
X122779329Y-73180970D01*
X122757151Y-73170480D01*
X122736107Y-73157867D01*
X122716402Y-73143253D01*
X122698223Y-73126777D01*
X122681747Y-73108598D01*
X122667133Y-73088893D01*
X122654520Y-73067849D01*
X122644030Y-73045671D01*
X122635765Y-73022571D01*
X122629804Y-72998773D01*
X122626204Y-72974504D01*
X122625000Y-72950000D01*
X122625000Y-72025000D01*
X122626204Y-72000496D01*
X122629804Y-71976227D01*
X122635765Y-71952429D01*
X122644030Y-71929329D01*
X122654520Y-71907151D01*
X122667133Y-71886107D01*
X122681747Y-71866402D01*
X122698223Y-71848223D01*
X122716402Y-71831747D01*
X122736107Y-71817133D01*
X122757151Y-71804520D01*
X122779329Y-71794030D01*
X122802429Y-71785765D01*
X122826227Y-71779804D01*
X122850496Y-71776204D01*
X122875000Y-71775000D01*
X124125000Y-71775000D01*
X124149504Y-71776204D01*
G37*
G36*
X132149504Y-71763704D02*
G01*
X132173773Y-71767304D01*
X132197571Y-71773265D01*
X132220671Y-71781530D01*
X132242849Y-71792020D01*
X132263893Y-71804633D01*
X132283598Y-71819247D01*
X132301777Y-71835723D01*
X132318253Y-71853902D01*
X132332867Y-71873607D01*
X132345480Y-71894651D01*
X132355970Y-71916829D01*
X132364235Y-71939929D01*
X132370196Y-71963727D01*
X132373796Y-71987996D01*
X132375000Y-72012500D01*
X132375000Y-72937500D01*
X132373796Y-72962004D01*
X132370196Y-72986273D01*
X132364235Y-73010071D01*
X132355970Y-73033171D01*
X132345480Y-73055349D01*
X132332867Y-73076393D01*
X132318253Y-73096098D01*
X132301777Y-73114277D01*
X132283598Y-73130753D01*
X132263893Y-73145367D01*
X132242849Y-73157980D01*
X132220671Y-73168470D01*
X132197571Y-73176735D01*
X132173773Y-73182696D01*
X132149504Y-73186296D01*
X132125000Y-73187500D01*
X130875000Y-73187500D01*
X130850496Y-73186296D01*
X130826227Y-73182696D01*
X130802429Y-73176735D01*
X130779329Y-73168470D01*
X130757151Y-73157980D01*
X130736107Y-73145367D01*
X130716402Y-73130753D01*
X130698223Y-73114277D01*
X130681747Y-73096098D01*
X130667133Y-73076393D01*
X130654520Y-73055349D01*
X130644030Y-73033171D01*
X130635765Y-73010071D01*
X130629804Y-72986273D01*
X130626204Y-72962004D01*
X130625000Y-72937500D01*
X130625000Y-72012500D01*
X130626204Y-71987996D01*
X130629804Y-71963727D01*
X130635765Y-71939929D01*
X130644030Y-71916829D01*
X130654520Y-71894651D01*
X130667133Y-71873607D01*
X130681747Y-71853902D01*
X130698223Y-71835723D01*
X130716402Y-71819247D01*
X130736107Y-71804633D01*
X130757151Y-71792020D01*
X130779329Y-71781530D01*
X130802429Y-71773265D01*
X130826227Y-71767304D01*
X130850496Y-71763704D01*
X130875000Y-71762500D01*
X132125000Y-71762500D01*
X132149504Y-71763704D01*
G37*
G36*
X132149504Y-68788704D02*
G01*
X132173773Y-68792304D01*
X132197571Y-68798265D01*
X132220671Y-68806530D01*
X132242849Y-68817020D01*
X132263893Y-68829633D01*
X132283598Y-68844247D01*
X132301777Y-68860723D01*
X132318253Y-68878902D01*
X132332867Y-68898607D01*
X132345480Y-68919651D01*
X132355970Y-68941829D01*
X132364235Y-68964929D01*
X132370196Y-68988727D01*
X132373796Y-69012996D01*
X132375000Y-69037500D01*
X132375000Y-69962500D01*
X132373796Y-69987004D01*
X132370196Y-70011273D01*
X132364235Y-70035071D01*
X132355970Y-70058171D01*
X132345480Y-70080349D01*
X132332867Y-70101393D01*
X132318253Y-70121098D01*
X132301777Y-70139277D01*
X132283598Y-70155753D01*
X132263893Y-70170367D01*
X132242849Y-70182980D01*
X132220671Y-70193470D01*
X132197571Y-70201735D01*
X132173773Y-70207696D01*
X132149504Y-70211296D01*
X132125000Y-70212500D01*
X130875000Y-70212500D01*
X130850496Y-70211296D01*
X130826227Y-70207696D01*
X130802429Y-70201735D01*
X130779329Y-70193470D01*
X130757151Y-70182980D01*
X130736107Y-70170367D01*
X130716402Y-70155753D01*
X130698223Y-70139277D01*
X130681747Y-70121098D01*
X130667133Y-70101393D01*
X130654520Y-70080349D01*
X130644030Y-70058171D01*
X130635765Y-70035071D01*
X130629804Y-70011273D01*
X130626204Y-69987004D01*
X130625000Y-69962500D01*
X130625000Y-69037500D01*
X130626204Y-69012996D01*
X130629804Y-68988727D01*
X130635765Y-68964929D01*
X130644030Y-68941829D01*
X130654520Y-68919651D01*
X130667133Y-68898607D01*
X130681747Y-68878902D01*
X130698223Y-68860723D01*
X130716402Y-68844247D01*
X130736107Y-68829633D01*
X130757151Y-68817020D01*
X130779329Y-68806530D01*
X130802429Y-68798265D01*
X130826227Y-68792304D01*
X130850496Y-68788704D01*
X130875000Y-68787500D01*
X132125000Y-68787500D01*
X132149504Y-68788704D01*
G37*
G36*
X93474504Y-64626204D02*
G01*
X93498773Y-64629804D01*
X93522571Y-64635765D01*
X93545671Y-64644030D01*
X93567849Y-64654520D01*
X93588893Y-64667133D01*
X93608598Y-64681747D01*
X93626777Y-64698223D01*
X93643253Y-64716402D01*
X93657867Y-64736107D01*
X93670480Y-64757151D01*
X93680970Y-64779329D01*
X93689235Y-64802429D01*
X93695196Y-64826227D01*
X93698796Y-64850496D01*
X93700000Y-64875000D01*
X93700000Y-66125000D01*
X93698796Y-66149504D01*
X93695196Y-66173773D01*
X93689235Y-66197571D01*
X93680970Y-66220671D01*
X93670480Y-66242849D01*
X93657867Y-66263893D01*
X93643253Y-66283598D01*
X93626777Y-66301777D01*
X93608598Y-66318253D01*
X93588893Y-66332867D01*
X93567849Y-66345480D01*
X93545671Y-66355970D01*
X93522571Y-66364235D01*
X93498773Y-66370196D01*
X93474504Y-66373796D01*
X93450000Y-66375000D01*
X92525000Y-66375000D01*
X92500496Y-66373796D01*
X92476227Y-66370196D01*
X92452429Y-66364235D01*
X92429329Y-66355970D01*
X92407151Y-66345480D01*
X92386107Y-66332867D01*
X92366402Y-66318253D01*
X92348223Y-66301777D01*
X92331747Y-66283598D01*
X92317133Y-66263893D01*
X92304520Y-66242849D01*
X92294030Y-66220671D01*
X92285765Y-66197571D01*
X92279804Y-66173773D01*
X92276204Y-66149504D01*
X92275000Y-66125000D01*
X92275000Y-64875000D01*
X92276204Y-64850496D01*
X92279804Y-64826227D01*
X92285765Y-64802429D01*
X92294030Y-64779329D01*
X92304520Y-64757151D01*
X92317133Y-64736107D01*
X92331747Y-64716402D01*
X92348223Y-64698223D01*
X92366402Y-64681747D01*
X92386107Y-64667133D01*
X92407151Y-64654520D01*
X92429329Y-64644030D01*
X92452429Y-64635765D01*
X92476227Y-64629804D01*
X92500496Y-64626204D01*
X92525000Y-64625000D01*
X93450000Y-64625000D01*
X93474504Y-64626204D01*
G37*
G36*
X90499504Y-64626204D02*
G01*
X90523773Y-64629804D01*
X90547571Y-64635765D01*
X90570671Y-64644030D01*
X90592849Y-64654520D01*
X90613893Y-64667133D01*
X90633598Y-64681747D01*
X90651777Y-64698223D01*
X90668253Y-64716402D01*
X90682867Y-64736107D01*
X90695480Y-64757151D01*
X90705970Y-64779329D01*
X90714235Y-64802429D01*
X90720196Y-64826227D01*
X90723796Y-64850496D01*
X90725000Y-64875000D01*
X90725000Y-66125000D01*
X90723796Y-66149504D01*
X90720196Y-66173773D01*
X90714235Y-66197571D01*
X90705970Y-66220671D01*
X90695480Y-66242849D01*
X90682867Y-66263893D01*
X90668253Y-66283598D01*
X90651777Y-66301777D01*
X90633598Y-66318253D01*
X90613893Y-66332867D01*
X90592849Y-66345480D01*
X90570671Y-66355970D01*
X90547571Y-66364235D01*
X90523773Y-66370196D01*
X90499504Y-66373796D01*
X90475000Y-66375000D01*
X89550000Y-66375000D01*
X89525496Y-66373796D01*
X89501227Y-66370196D01*
X89477429Y-66364235D01*
X89454329Y-66355970D01*
X89432151Y-66345480D01*
X89411107Y-66332867D01*
X89391402Y-66318253D01*
X89373223Y-66301777D01*
X89356747Y-66283598D01*
X89342133Y-66263893D01*
X89329520Y-66242849D01*
X89319030Y-66220671D01*
X89310765Y-66197571D01*
X89304804Y-66173773D01*
X89301204Y-66149504D01*
X89300000Y-66125000D01*
X89300000Y-64875000D01*
X89301204Y-64850496D01*
X89304804Y-64826227D01*
X89310765Y-64802429D01*
X89319030Y-64779329D01*
X89329520Y-64757151D01*
X89342133Y-64736107D01*
X89356747Y-64716402D01*
X89373223Y-64698223D01*
X89391402Y-64681747D01*
X89411107Y-64667133D01*
X89432151Y-64654520D01*
X89454329Y-64644030D01*
X89477429Y-64635765D01*
X89501227Y-64629804D01*
X89525496Y-64626204D01*
X89550000Y-64625000D01*
X90475000Y-64625000D01*
X90499504Y-64626204D01*
G37*
G36*
X84487004Y-64626204D02*
G01*
X84511273Y-64629804D01*
X84535071Y-64635765D01*
X84558171Y-64644030D01*
X84580349Y-64654520D01*
X84601393Y-64667133D01*
X84621098Y-64681747D01*
X84639277Y-64698223D01*
X84655753Y-64716402D01*
X84670367Y-64736107D01*
X84682980Y-64757151D01*
X84693470Y-64779329D01*
X84701735Y-64802429D01*
X84707696Y-64826227D01*
X84711296Y-64850496D01*
X84712500Y-64875000D01*
X84712500Y-66125000D01*
X84711296Y-66149504D01*
X84707696Y-66173773D01*
X84701735Y-66197571D01*
X84693470Y-66220671D01*
X84682980Y-66242849D01*
X84670367Y-66263893D01*
X84655753Y-66283598D01*
X84639277Y-66301777D01*
X84621098Y-66318253D01*
X84601393Y-66332867D01*
X84580349Y-66345480D01*
X84558171Y-66355970D01*
X84535071Y-66364235D01*
X84511273Y-66370196D01*
X84487004Y-66373796D01*
X84462500Y-66375000D01*
X83537500Y-66375000D01*
X83512996Y-66373796D01*
X83488727Y-66370196D01*
X83464929Y-66364235D01*
X83441829Y-66355970D01*
X83419651Y-66345480D01*
X83398607Y-66332867D01*
X83378902Y-66318253D01*
X83360723Y-66301777D01*
X83344247Y-66283598D01*
X83329633Y-66263893D01*
X83317020Y-66242849D01*
X83306530Y-66220671D01*
X83298265Y-66197571D01*
X83292304Y-66173773D01*
X83288704Y-66149504D01*
X83287500Y-66125000D01*
X83287500Y-64875000D01*
X83288704Y-64850496D01*
X83292304Y-64826227D01*
X83298265Y-64802429D01*
X83306530Y-64779329D01*
X83317020Y-64757151D01*
X83329633Y-64736107D01*
X83344247Y-64716402D01*
X83360723Y-64698223D01*
X83378902Y-64681747D01*
X83398607Y-64667133D01*
X83419651Y-64654520D01*
X83441829Y-64644030D01*
X83464929Y-64635765D01*
X83488727Y-64629804D01*
X83512996Y-64626204D01*
X83537500Y-64625000D01*
X84462500Y-64625000D01*
X84487004Y-64626204D01*
G37*
G36*
X81512004Y-64626204D02*
G01*
X81536273Y-64629804D01*
X81560071Y-64635765D01*
X81583171Y-64644030D01*
X81605349Y-64654520D01*
X81626393Y-64667133D01*
X81646098Y-64681747D01*
X81664277Y-64698223D01*
X81680753Y-64716402D01*
X81695367Y-64736107D01*
X81707980Y-64757151D01*
X81718470Y-64779329D01*
X81726735Y-64802429D01*
X81732696Y-64826227D01*
X81736296Y-64850496D01*
X81737500Y-64875000D01*
X81737500Y-66125000D01*
X81736296Y-66149504D01*
X81732696Y-66173773D01*
X81726735Y-66197571D01*
X81718470Y-66220671D01*
X81707980Y-66242849D01*
X81695367Y-66263893D01*
X81680753Y-66283598D01*
X81664277Y-66301777D01*
X81646098Y-66318253D01*
X81626393Y-66332867D01*
X81605349Y-66345480D01*
X81583171Y-66355970D01*
X81560071Y-66364235D01*
X81536273Y-66370196D01*
X81512004Y-66373796D01*
X81487500Y-66375000D01*
X80562500Y-66375000D01*
X80537996Y-66373796D01*
X80513727Y-66370196D01*
X80489929Y-66364235D01*
X80466829Y-66355970D01*
X80444651Y-66345480D01*
X80423607Y-66332867D01*
X80403902Y-66318253D01*
X80385723Y-66301777D01*
X80369247Y-66283598D01*
X80354633Y-66263893D01*
X80342020Y-66242849D01*
X80331530Y-66220671D01*
X80323265Y-66197571D01*
X80317304Y-66173773D01*
X80313704Y-66149504D01*
X80312500Y-66125000D01*
X80312500Y-64875000D01*
X80313704Y-64850496D01*
X80317304Y-64826227D01*
X80323265Y-64802429D01*
X80331530Y-64779329D01*
X80342020Y-64757151D01*
X80354633Y-64736107D01*
X80369247Y-64716402D01*
X80385723Y-64698223D01*
X80403902Y-64681747D01*
X80423607Y-64667133D01*
X80444651Y-64654520D01*
X80466829Y-64644030D01*
X80489929Y-64635765D01*
X80513727Y-64629804D01*
X80537996Y-64626204D01*
X80562500Y-64625000D01*
X81487500Y-64625000D01*
X81512004Y-64626204D01*
G37*
M02*
